<?xml version="1.0" encoding="utf-8"?>
<!-- Generator: Adobe Illustrator 15.0.0, SVG Export Plug-In . SVG Version: 6.00 Build 0)  -->
<!DOCTYPE svg PUBLIC "-//W3C//DTD SVG 1.1//EN" "http://www.w3.org/Graphics/SVG/1.1/DTD/svg11.dtd">
<svg version="1.1" id="Layer_1" xmlns="http://www.w3.org/2000/svg" xmlns:xlink="http://www.w3.org/1999/xlink" x="0px" y="0px"
	 width="104.348px" height="83.333px" viewBox="0 0 104.348 83.333" enable-background="new 0 0 104.348 83.333"
	 xml:space="preserve">
<g>
	<g>
		<path fill="#FBB03B" d="M64.978,5.154c-0.923-0.922-1.671-0.613-1.671,0.692v9.788c0,1.305-0.975,1.202-2.203,1.643
			C52.966,20.191,24.235,28.424,7.725,6.459c-0.784-1.043-1.37-0.87-1.317,0.435c1.202,29.83,24.44,59.363,54.013,60.827
			c1.304,0.064,2.886-0.455,2.886,0.85v10.574c0,1.306,0.748,1.615,1.671,0.692l35.671-35.671c0.923-0.923,0.923-2.419,0-3.341
			L64.978,5.154z"/>
	</g>
</g>
</svg>
