<?xml version="1.0" encoding="utf-8"?>
<!-- Generator: Adobe Illustrator 15.0.0, SVG Export Plug-In . SVG Version: 6.00 Build 0)  -->
<!DOCTYPE svg PUBLIC "-//W3C//DTD SVG 1.1//EN" "http://www.w3.org/Graphics/SVG/1.1/DTD/svg11.dtd">
<svg version="1.1" id="Layer_1" xmlns="http://www.w3.org/2000/svg" xmlns:xlink="http://www.w3.org/1999/xlink" x="0px" y="0px"
	 width="1930px" height="500px" viewBox="0 0 1930 500" enable-background="new 0 0 1930 500" xml:space="preserve">
<rect x="-38" y="-13" fill="#29ABE2" stroke="#000000" stroke-miterlimit="10" width="1968" height="528"/>
<g opacity="0.09">
	<g>
		<polygon points="742.509,193.61 742.509,224.809 971.296,47.831 1200.084,224.809 1200.084,193.61 971.296,16.633 		"/>
		<polygon points="1158.486,138.638 1158.486,27.219 1096.089,27.219 1096.089,89.616 1116.889,107.752 1116.889,48.018 
			1137.686,48.018 1137.686,120.814 		"/>
		<polygon points="1055.095,453.596 1055.095,474.395 1158.632,474.395 1158.632,222.125 1137.831,205.507 1137.831,453.596 		"/>
		<path d="M908.898,474.209h124.792V266.218H908.898V474.209z M929.699,287.018h83.194v166.391h-83.194V287.018z"/>
		<polygon points="784.106,222.915 784.106,474.395 887.684,474.395 887.684,453.596 804.905,453.596 804.905,206.069 		"/>
	</g>
	<g>
	</g>
	<g>
	</g>
	<g>
	</g>
	<g>
	</g>
	<g>
	</g>
	<g>
	</g>
	<g>
	</g>
	<g>
	</g>
	<g>
	</g>
	<g>
	</g>
	<g>
	</g>
	<g>
	</g>
	<g>
	</g>
	<g>
	</g>
	<g>
	</g>
</g>
<g opacity="0.1">
	<g>
		<path d="M518.691,103.838c30.627,0,55.455,24.828,55.455,55.455c0,30.627-24.828,55.456-55.455,55.456
			s-55.468-24.828-55.468-55.456C463.224,128.667,488.064,103.838,518.691,103.838z"/>
		<path d="M667.76,206.118c-59.883,15.346-120.234,28.514-180.994,39.623c-0.235-3.761-0.829-7.647-1.928-11.641
			c-12.192-43.919-78.69-58.029-94.814-64.42c10.362-11.289,20.737-22.554,31.109-33.831c23.197-25.186-14.33-62.899-37.612-37.6
			c-19.006,20.673-38.035,41.372-57.051,62.033c-10.837,11.784-10.658,33.929,5.391,41.744c8.915,4.339,18.04,8.321,27.214,12.154
			c-60.804,18.14-89.428,20.499-90.775,20.599c-119.623,10.331-224.962,19.629-344.591,29.978
			c-42.379,3.66-38.806,69.613,3.914,65.931c71.03-6.121,142.077-12.316,213.105-18.413
			c-65.118,16.336-130.25,32.682-195.356,48.989c-41.551,10.399-23.926,74.51,17.663,64.086
			c83.554-20.921,405.364-93.503,466.359-116.228c84.972-13.206,169.163-30.38,252.501-51.76
			C715.104,248.845,701.009,197.586,667.76,206.118z"/>
		<g>
			<path fill="#FBB03B" d="M309.06,207.762c-4.228-5.328-7.154-11.733-8.494-18.805c-0.556-2.956-0.612-5.972-0.612-8.964
				l-0.643-0.915l-393.785-62.035l47.783,125.681l313.333-27.072C267.491,215.577,281.178,214.354,309.06,207.762z"/>
		</g>
	</g>
</g>
<g opacity="0.1">
	<g>
		<path d="M1451.506,204.993c-2.166-0.19-2.135-1.011-0.279-2.627c1.922-1.669,3.66-3.571,3.957-4.072
			c0.044-0.083,0.057-0.152,0.039-0.22c-0.035-0.125-0.248-0.292-0.388-0.442c-0.078-0.092-0.161-0.181-0.244-0.272
			c-0.562-0.632-2.653,0.122-3.251,0.32c-11.076,3.645-9.795-2.811-13.687-9.238c-2.749-4.54-8.492-9.042-13.694-10.268
			c-0.819-0.191-1.442-0.337-1.957-0.453c-1.085-0.24-1.943-0.431-1.908-0.529c0.035-0.096,0.096-0.181,0.144-0.192
			c0.021-0.006,0.048-0.011,0.083-0.017c0.906-0.207,1.839-0.447,2.741-0.741c0.923-0.309,1.717-0.664,2.353-1.087
			c0.296-0.194,0.492-0.407,0.588-0.643c0.179-0.451,0.009-1.009,0.087-1.205c0.049-0.113,0.092-0.233,0.136-0.361
			c0.113-0.338-0.127-0.41-0.41-0.499c-0.989-0.307-1.978-0.449-2.972-0.466c-1.664-0.031-2.88,0-2.818-0.366
			c0.03-0.2,0.043-0.42,0.039-0.665c-0.009-0.312-0.741-0.309-0.881-0.322c-1.268-0.113-2.471-0.011-3.629,0.246
			c-1.97,0.436-4.297,0.88-5.352,1.118c-0.74,0.17-1.468,0.462-1.843,0.641c-7.809,3.704-10.793,11.353-14.72,18.333
			c-1.207,2.148-3.176,3.268-4.161,2.523c-0.645-0.486-1.25-0.967-1.786-1.355c-4.266-3.092-10.14-4.974-14.931-7.072
			c-5.497-2.41-11.989-5.799-18.035-6.405c-0.978-0.098-4.545,0.214-4.618,1.639c-0.146,2.721,0.893,4.416,1.984,6.819
			c0.353,0.777,1.582,1.852,2.876,2.93c1.756,1.464,1.023,2.856-0.2,4.593c-0.593,0.838-0.828,2.013-0.536,3.706
			c0.554,3.225,8.867,7.103,8.837,7.111c-0.741,0.264-4.6,1.706-4.325,3.294c0.529,3.081,3.828,5.414,6.767,6.192
			c5.752,1.525,5.624-1.279,3.049,3.488c-1.456,2.702,0.897,5.782,3.494,6.274c0.754,0.144,1.403,0.31,2.03,0.429
			c1.129,0.22,0.423,1.325-1.738,2.51c-8.379,4.591-16.554,5.56-24.523,2.909c-2.34-0.778-5.15-2.366-6.468-3.087
			c-0.796-0.436-1.606-0.843-2.432-1.227c-0.752-0.368-5.488,0.704-4.922,1.527c14.512,21.101,47.748,24.469,70.319,17.059
			c10.736-3.527,21.556-8.791,28.972-17.632c4.131-4.919,6.85-14.22,13.43-15.983c3.115-0.836,6.074-2.244,8.405-4.484
			c0.218-0.207,0.361-0.409,0.101-0.638C1454.495,205.429,1453.057,205.13,1451.506,204.993z M1417.662,177.145
			c0.462,0.015,0.462,0.031,0,0.009C1417.196,177.132,1417.196,177.125,1417.662,177.145z M1442.674,210.664
			c-6.732,2.95-7.835,8.639-11.948,14.564c-12.021,17.308-38.329,24.525-60.789,20.011c-2.414-0.486-2.973-2.323-1.29-3.911
			c1.687-1.59,3.018-2.9,2.976-2.926c-0.037-0.026-1.407,1.262-3.059,2.876c-1.649,1.614-4.092,2.623-5.43,2.183
			c-1.34-0.44-1.618-1.641-0.648-2.623c0.972-0.983,0.915-1.007-0.127-0.05c-1.039,0.958-3.765,1.046-5.986-0.018
			c-3.238-1.547-6.271-3.407-9.029-5.592c-1.93-1.532-3.224-2.907-3.076-2.863c0.146,0.048,0.412,0.172,0.595,0.288
			c0.182,0.113,0.368,0.179,0.414,0.139c0.046-0.043,1.98,0.562,4.403,1.016c1.053,0.194,2.113,0.337,3.194,0.422
			c2.457,0.192,3.8,0.608,2.986,1.362c-0.812,0.754-0.604,1.605,0.476,1.828c1.082,0.222,3.059-0.651,4.402-1.889
			c1.349-1.233,4.399-2.617,6.776-3.262c5.595-1.516,11.662-4.039,13.14-8.377c0.232-0.682-1.065-0.534-1.388-0.521
			c-0.826-0.015-1.545-0.094-2.161-0.225c-1.177-0.252-1.357-1.427-0.584-2.144c0.771-0.717,1.176-1.325,0.901-1.362
			c-0.17-0.022-0.335-0.046-0.497-0.079c-0.457-0.083-0.887-0.189-1.298-0.313c-0.706-0.213-0.987-1.327-0.451-2.325
			c0.534-0.998,1.271-1.852,1.475-2.039c0.136-0.122,0.235-0.272,0.198-0.432c-0.02-0.078-0.041-0.159-0.061-0.242
			c-0.072-0.303-0.676-0.331-0.878-0.323c-2.362,0.085-4.313-0.111-5.837-0.527c-2.377-0.651-2.938-3.096-2.133-3.922
			c0.807-0.828,0.998-1.721,0.457-2.035c-0.54-0.316-1.059-0.505-1.187-0.373c-0.131,0.128,0.159-0.416,0.777-1.111
			c0.349-0.388,0.745-0.787,1.203-1.188c0.137-0.122,0.436-0.494,0.1-0.638c-0.457-0.192-1.638-0.896-3.055-1.841
			c-1.64-1.098-2.862-2.551-2.544-3.013c0.209-0.303,0.487-0.508,0.812-0.564c0.146-0.024,0.294-0.054,0.444-0.081
			c0.246-0.048,0.843-0.475,1.331-0.957c0.488-0.483,0.651-1.041,0.364-1.244c-0.164-0.116-0.338-0.238-0.521-0.368
			c-0.287-0.205-0.562-0.412-0.827-0.624c-0.449-0.357-1.573,0.129-2.523,1.114c-0.954,0.982-2.179,1.379-2.684,0.836
			c-0.51-0.545-0.306-1.602,0.365-2.286c0.676-0.686,1.793-1.346,2.414-1.669c0.44-0.229,0.759-0.531,0.789-0.923
			c0.126-1.514-1.517-3.103-3.391-4.917c-1.769-1.715-2.692-3.614-2.239-4.07c0.453-0.458,2.166-0.357,3.791,0.296
			s2.765,1.395,2.571,1.584c-0.196,0.189,0.453,0.632,1.441,0.993c0.987,0.362,1.892,0.558,2.016,0.432s0.303-0.192,0.398-0.146
			c0.092,0.048,0.074,0.181-0.043,0.303c-0.118,0.12-0.181,0.227-0.145,0.242c0.04,0.016,0.162-0.069,0.279-0.187
			c0.113-0.116,0.763,0.057,1.453,0.388c0.687,0.333,1.188,0.656,1.124,0.721c-0.062,0.065,0.504,0.357,1.262,0.653
			c0.761,0.299,1.29,0.627,1.181,0.73c-0.108,0.1-0.609,0.933-1.103,1.865c-0.292,0.558-0.586,1.122-0.873,1.693
			c-0.116,0.235-0.225,0.468-0.329,0.704c-0.179,0.39,0.732-0.264,2.03-1.458c1.299-1.194,2.665-2.007,3.057-1.817
			c0.242,0.118,0.481,0.231,0.715,0.338c0.354,0.166,0.712,0.355,1.069,0.558c0.584,0.331,0.083,1.525-1.102,2.636
			c-1.182,1.111-2.552,2.758-3.044,3.691c-0.294,0.558-0.586,1.122-0.874,1.695c-0.115,0.233-0.222,0.468-0.329,0.702
			c-0.176,0.39,1.153-0.649,2.968-2.318c0.582-0.536,1.188-1.094,1.819-1.675c1.811-1.669,4.894-1.845,6.989-0.549
			c0.349,0.218,0.699,0.425,1.052,0.623c2.148,1.205,3.136,2.527,1.89,3.682c-1.244,1.154-1.752,2.521-1.136,3.05
			c0.329,0.281,0.708,0.608,1.118,0.963c0.061,0.05,0.126,0.098,0.189,0.138c0.108,0.069,1.202-0.817,2.438-1.965
			c1.233-1.148,2.432-2.517,2.678-3.055c0.146-0.322,0.299-0.645,0.455-0.965c0.083-0.164,0.168-0.323,0.249-0.479
			c0.142-0.264,0.324-0.512,0.409-0.551c0.053-0.026,0.104-0.05,0.152-0.079c6.14-3.725,7.133-12.246,11.395-18.386
			c1.407-2.024,3.865-3.331,4.929-3.601c0.884-0.227,1.703-0.517,1.878-0.619c2.605-1.522,0.117,0.294-0.396,0.532
			c-2.022,0.937-0.449,1.456,0.967,1.188c7.939-1.508,2.706-0.148-0.558,2.335c-0.675,0.514,0.183,0.797,0.636,0.789
			c0.598-0.011,1.182,0,1.757,0.031c0.972,0.057,0.867,1.002-0.227,2.03c-1.099,1.028-2.396,2.608-2.885,3.541
			c-0.296,0.558-0.589,1.122-0.876,1.693c-0.117,0.233-0.223,0.466-0.327,0.702c-0.179,0.39,1.15-0.647,2.964-2.316
			c0.692-0.636,1.42-1.305,2.183-2.007c1.809-1.671,3.908-2.874,4.671-2.625c0.763,0.246,1.32,0.531,1.277,0.575
			c-0.053,0.046-0.502,0.83-0.994,1.763c-0.292,0.558-0.584,1.122-0.876,1.695c-0.113,0.235-0.222,0.47-0.326,0.704
			c-0.179,0.39,0.671-0.207,1.899-1.335c1.229-1.126,2.802-1.743,3.49-1.323c0.688,0.423,1.168,0.854,1.106,0.913
			c-0.065,0.061,0.014,0.13,0.166,0.161c0.157,0.033,1.926,1.213,3.655,2.972c2.062,2.098,3.84,4.527,5.421,7.144
			c2.244,3.701,0.58,5.061,4.044,6.972c1.747,0.967,6.453,0.246,7.848-0.007c11.529-2.12-0.802,2.432-5.486,4.379
			c-0.253,0.103-1.521,0.723-0.941,1.144c0.332,0.244,0.667,0.484,0.998,0.728c0.07,0.05,0.179,0.059,0.271,0.087
			c0.087,0.024,0.157,0.042,0.218,0.057c0.122,0.026,1.729,0.318,3.607,0.486c0.876,0.079,1.817,0.12,3.403,0.188
			C1450.517,207.542,1443.685,210.217,1442.674,210.664z"/>
	</g>
</g>
<g opacity="0.1">
	<g id="Layer_7">
		<path d="M1565.372,122.989c-1.777-1.094-3.995-1.188-5.865-0.255l-68.062,34.103c-2.039,1.024-3.324,3.111-3.324,5.39v1.758
			h-28.288c-2.465,0-4.462,2-4.462,4.462v76.411c0,2.464,1.997,4.462,4.462,4.462h28.288v3.316c0,2.181,1.176,4.188,3.076,5.255
			l68.058,38.223c0.919,0.512,1.93,0.771,2.945,0.771c1.059,0,2.104-0.277,3.046-0.824c1.848-1.078,2.984-3.062,2.984-5.203V128.122
			C1568.235,126.032,1567.15,124.087,1565.372,122.989z M1556.179,280.559l-56.006-31.449v-83.162l56.006-28.066V280.559z
			 M1581.874,236.032c-0.506,0.272-1.055,0.405-1.596,0.405c-1.185,0-2.335-0.632-2.94-1.75c-0.885-1.623-0.283-3.653,1.342-4.538
			c9.124-4.958,14.575-14.31,14.575-25.013c0-10.704-5.451-20.055-14.575-25.014c-1.625-0.882-2.227-2.915-1.342-4.538
			c0.884-1.625,2.915-2.22,4.536-1.344c11.315,6.15,18.074,17.7,18.074,30.896S1593.189,229.883,1581.874,236.032z
			 M1587.542,254.995c-0.505,0.272-1.054,0.405-1.595,0.405c-1.185,0-2.335-0.632-2.94-1.75c-0.885-1.623-0.283-3.654,1.342-4.538
			c16.057-8.728,25.647-25.166,25.647-43.977c0-18.809-9.591-35.249-25.647-43.977c-1.625-0.882-2.227-2.915-1.342-4.538
			c0.884-1.625,2.915-2.22,4.535-1.344c18.249,9.917,29.146,28.558,29.146,49.859S1605.791,245.075,1587.542,254.995z
			 M1636.472,205.138c0,28.454-14.55,53.347-38.916,66.591c-0.506,0.273-1.055,0.408-1.595,0.408c-1.186,0-2.336-0.633-2.941-1.75
			c-0.885-1.625-0.283-3.654,1.347-4.538c22.17-12.048,35.416-34.741,35.416-60.707c0-25.963-13.246-48.659-35.416-60.711
			c-1.625-0.882-2.227-2.915-1.347-4.541c0.885-1.623,2.915-2.22,4.54-1.342C1621.922,151.789,1636.472,176.684,1636.472,205.138z"
			/>
	</g>
</g>
<g>
	<path fill="#FBB03B" d="M1082.894,322.008c-5.46-10.301-4.301-7.549-5.283-12.637c-0.892-4.586-0.442-9.893-0.692-15.391
		c-0.371-8.301-1.145-17.031-1.145-24.349c0-6.431-2.685-8.477-4.136-12.635c-2.109-6.05-3.8-11.585-6.66-14.472
		c-3.469-3.502-7.269-1.279-7.269-1.279c-2.507-6.48-3.164-8.13-5.798-11.332c-2.535-3.081-6.357-2.665-6.357-2.665
		s-1.874-9.305-6.154-14.002c-2.286-2.506-6.991-2.478-8.764-1.618c-1.279,0.622-2.997,2.619-4.796,3.931
		c-3.454,2.526-7.627,7.257-7.627,7.257s-0.708-2.155-2.677-6.007c-1.466-2.87-4.101-6.529-6.207-10.181
		c1.964-2.617,3.143-5.858,3.143-9.38c0-8.654-7.012-15.664-15.659-15.664c-8.649,0-15.66,7.011-15.66,15.664
		c0,7.4,5.141,13.585,12.04,15.222c0.409,1.461,0.838,2.946,1.282,4.468c1.19,4.07,3.177,9.404,4.822,13.638
		c2.203,5.654,4.055,10.271,5.106,16.209c0.77,4.356,0.316,9.34,0.128,13.501c-0.159,3.536-0.418,6.94-0.829,9.739
		c-0.558,3.819-1.769,6.502-2.416,8.216c-0.484,1.282-0.402,2.361-0.402,2.361s-0.888-0.02-1.944,0.332
		c-1.059,0.344-1.727,1.234-1.727,1.234l-1.762-1.185c0,0,0.33-0.639,0-1.776c-0.359-1.245-0.984-2.994-1.871-5.337
		c-0.36-0.958-0.706-2.86-0.989-3.76c-0.743-2.379-1.727-3.263-1.727-3.263s1.019-3.268-0.347-6.811
		c-1.428-3.709-4.575-8.696-8.069-12.004c-2.882-2.727-5.229-3.44-7.717-3.062c-3.102,0.469-4.284,4.062-3.707,7.84
		c0.35,2.287,1.368,5.363,1.606,6.943c0.576,3.774-1.506,8.234-1.429,10.838c0.1,3.366,1.854,5.236,3.465,12.355
		c0.573,2.549,2.235,5.328,2.996,8.24c1.126,4.309,1.817,8.416,2.319,9.455c2.652,5.498,13.189,12.395,22.973,21.363
		c5.511,5.055,12.035,5.074,16.539,9.646c2.76,2.801,4.277,7.482,7.12,11.715c11.79,17.562,46.337,0.404,55.412-12.615
		C1084.182,327.666,1083.74,323.611,1082.894,322.008z M987.099,197.243c0-5.359,4.346-9.709,9.707-9.709
		c5.362,0,9.708,4.35,9.708,9.709c0,1.028-0.162,2.014-0.456,2.943c-2.885-6.008-5.572-11.103-11.274-9.401
		c-1.981,0.589-3.991,2.579-4.312,5.845c-0.229,2.358,0.157,5.311,0.879,8.641C988.783,203.524,987.099,200.582,987.099,197.243z"/>
</g>
<g opacity="0.1">
	<g>
		<path fill="#1D1D1B" d="M1026.496,125.608c0.913-1.941-0.033-4.863-2.858-4.933c-31.527-0.794-72.326,1.65-103.853,0.442
			c-0.996-0.038-1.748,0.3-2.28,0.831c-1.077,0.438-1.919,1.408-1.919,2.925c-0.015,37.493-1.598,75.896,3.653,113.132
			c0.17,1.192,0.808,1.888,1.611,2.201c0.534,0.667,1.352,1.122,2.47,1.115c6.042-0.031,14.728-0.41,20.771-0.442
			c1.29-0.006,2.186-0.621,2.696-1.468c0.871-0.505,1.502-1.413,1.502-2.73v-37.563c0-0.166-0.026-0.312-0.046-0.466
			c0.02-0.14,0.046-0.281,0.046-0.417c0-1.988-1.524-3.077-3.313-3.315c-2.454-0.327-6.237-0.412-8.704-0.433
			c-0.134-0.782-0.282-2.886-0.422-3.667c2.251-0.548,5.883-0.742,8.241-0.761c0.377-0.002,0.707-0.073,1.016-0.17
			c1.744,0.107,3.438-0.925,3.183-3.145c-1.23-10.678-1.265-20.014-0.456-30.725c4.444-10.693,16.15-14.497,26.972-13.14v5.203
			c-19.415,0.719-23.138,19.77-18.886,36.449c0.107,0.418,0.28,0.761,0.481,1.063c0.235,1.428,1.287,2.697,3.157,2.697h8.175v5.314
			c-2.703,1.398-5.553,1.004-8.615,1.432c-0.036,0.006-0.065,0.023-0.099,0.03c-1.726-0.084-3.411,0.959-3.217,3.167
			c0.826,9.413,1.318,28.125,1.768,37.563c0.078,1.642,1.114,2.646,2.343,3.023c0.404,0.186,0.874,0.292,1.412,0.292
			c21.361,0.017,40.077,0.394,61.431-0.442c1.236-0.048,2.106-0.651,2.628-1.468c0.884-0.505,1.54-1.414,1.568-2.732
			c0.833-36.238-0.409-72.474-0.441-108.714C1026.514,125.704,1026.5,125.662,1026.496,125.608z M1020.365,232.12
			c-19.648,0.688-36.653,0.41-56.31,0.37c-0.37-9.172-0.791-23.897-1.396-31.371c3.556-0.729,6.953-0.793,10.062-2.676
			c1.064-0.642,1.521-1.586,1.563-2.544c0.051-0.236,0.078-0.49,0.078-0.758v-10.165c0-2.149-1.673-3.215-3.337-3.205
			c-0.27-0.067-0.551-0.11-0.861-0.11h-8.122c-2.985-12.858-1.3-27.598,15.191-26.958c1.683,0.064,2.691-0.925,3.049-2.156
			c0.683-0.532,1.151-1.354,1.151-2.485v-10.166c0-2.157-1.69-3.222-3.362-3.201c-15.362-2.599-30.686,2.798-36.736,17.788
			c-0.287,0.708-0.31,1.339-0.156,1.884c-0.702,9.516-0.729,17.67,0.153,27.157c-2.982,0.185-7.29,0.677-10.058,1.79
			c-1.555,0.625-2.648,1.978-2.383,3.682c-0.003,0.276,0.012,0.555,0.066,0.836c0.493,2.495,0.908,6.331,1.326,8.837
			c0.261,1.562,1.96,2.501,3.455,2.417c0.062,0.002,0.118,0.018,0.184,0.018c2.138,0,5.601,0.018,7.732,0.144v33.043
			c-4.527,0.083-11.706,0.288-16.233,0.364c-4.764-35.14-3.315-71.439-3.22-106.837c29.948,0.967,68.199-1.099,97.686-0.585
			C1019.95,162.196,1021.081,197.155,1020.365,232.12z"/>
	</g>
</g>
</svg>
