<?xml version="1.0" encoding="utf-8"?>
<!-- Generator: Adobe Illustrator 15.0.0, SVG Export Plug-In . SVG Version: 6.00 Build 0)  -->
<!DOCTYPE svg PUBLIC "-//W3C//DTD SVG 1.1//EN" "http://www.w3.org/Graphics/SVG/1.1/DTD/svg11.dtd">
<svg version="1.1" id="Layer_1" xmlns="http://www.w3.org/2000/svg" xmlns:xlink="http://www.w3.org/1999/xlink" x="0px" y="0px"
	 width="1930px" height="500px" viewBox="0 0 1930 500" enable-background="new 0 0 1930 500" xml:space="preserve">
<rect x="-38" y="-13" fill="#33CCFF" stroke="#000000" stroke-miterlimit="10" width="1968" height="528"/>
<g opacity="0.09">
	<g>
		<polygon points="-118.491,189.417 -118.491,220.616 110.296,43.638 339.084,220.616 339.084,189.417 110.296,12.44 		"/>
		<polygon points="297.486,134.445 297.486,23.026 235.089,23.026 235.089,85.423 255.889,103.559 255.889,43.825 276.686,43.825 
			276.686,116.621 		"/>
		<polygon points="194.095,449.402 194.095,470.201 297.632,470.201 297.632,217.932 276.831,201.314 276.831,449.402 		"/>
		<path d="M47.898,470.016H172.69v-207.99H47.898V470.016z M68.699,282.824h83.193v166.393H68.699V282.824z"/>
		<polygon points="-76.894,218.722 -76.894,470.201 26.684,470.201 26.684,449.402 -56.095,449.402 -56.095,201.876 		"/>
	</g>
</g>
<g opacity="0.1">
	<g>
		<path d="M606.506,216.119c-2.166-0.19-2.135-1.011-0.279-2.627c1.922-1.669,3.66-3.571,3.957-4.072
			c0.044-0.083,0.058-0.152,0.039-0.22c-0.035-0.125-0.248-0.292-0.388-0.442c-0.078-0.092-0.161-0.181-0.244-0.272
			c-0.562-0.632-2.653,0.122-3.251,0.32c-11.076,3.645-9.795-2.811-13.687-9.238c-2.749-4.54-8.492-9.042-13.694-10.268
			c-0.819-0.191-1.442-0.337-1.957-0.453c-1.085-0.24-1.943-0.431-1.908-0.529c0.035-0.096,0.096-0.181,0.145-0.192
			c0.021-0.006,0.048-0.011,0.083-0.017c0.905-0.207,1.839-0.447,2.741-0.741c0.923-0.309,1.717-0.664,2.353-1.087
			c0.296-0.194,0.492-0.407,0.588-0.643c0.179-0.451,0.009-1.009,0.087-1.205c0.049-0.113,0.092-0.233,0.137-0.361
			c0.112-0.338-0.127-0.41-0.41-0.499c-0.989-0.307-1.979-0.449-2.973-0.466c-1.664-0.031-2.88,0-2.817-0.366
			c0.029-0.2,0.043-0.42,0.038-0.665c-0.009-0.312-0.74-0.309-0.881-0.322c-1.268-0.113-2.471-0.011-3.629,0.246
			c-1.97,0.436-4.297,0.88-5.352,1.118c-0.74,0.17-1.469,0.462-1.844,0.641c-7.809,3.704-10.793,11.353-14.72,18.333
			c-1.207,2.148-3.176,3.268-4.161,2.523c-0.645-0.486-1.25-0.967-1.785-1.355c-4.267-3.092-10.141-4.974-14.932-7.072
			c-5.497-2.41-11.989-5.799-18.035-6.405c-0.978-0.098-4.545,0.214-4.618,1.639c-0.146,2.721,0.894,4.416,1.984,6.819
			c0.353,0.777,1.582,1.852,2.876,2.93c1.756,1.464,1.023,2.856-0.2,4.593c-0.593,0.838-0.828,2.013-0.536,3.706
			c0.555,3.225,8.867,7.103,8.838,7.111c-0.741,0.264-4.601,1.706-4.325,3.294c0.528,3.081,3.828,5.414,6.767,6.192
			c5.752,1.525,5.624-1.279,3.049,3.488c-1.456,2.702,0.897,5.782,3.494,6.274c0.754,0.144,1.403,0.31,2.03,0.429
			c1.129,0.22,0.423,1.325-1.738,2.51c-8.379,4.591-16.554,5.56-24.522,2.909c-2.34-0.778-5.15-2.366-6.469-3.087
			c-0.796-0.436-1.605-0.843-2.432-1.227c-0.752-0.368-5.488,0.704-4.922,1.527c14.512,21.1,47.748,24.468,70.318,17.059
			c10.736-3.527,21.557-8.792,28.973-17.632c4.131-4.919,6.85-14.22,13.43-15.983c3.115-0.836,6.074-2.244,8.405-4.484
			c0.218-0.207,0.361-0.409,0.101-0.638C609.495,216.555,608.057,216.256,606.506,216.119z M572.662,188.271
			c0.462,0.015,0.462,0.031,0,0.009C572.196,188.258,572.196,188.251,572.662,188.271z M597.674,221.79
			c-6.732,2.95-7.835,8.639-11.948,14.564c-12.021,17.308-38.329,24.525-60.788,20.011c-2.414-0.486-2.974-2.323-1.291-3.911
			c1.688-1.591,3.019-2.9,2.977-2.926c-0.037-0.026-1.407,1.262-3.059,2.876c-1.649,1.613-4.093,2.623-5.431,2.183
			c-1.34-0.44-1.618-1.642-0.647-2.623c0.972-0.983,0.915-1.007-0.127-0.05c-1.039,0.958-3.766,1.046-5.986-0.018
			c-3.238-1.547-6.271-3.408-9.029-5.592c-1.93-1.532-3.224-2.907-3.076-2.863c0.146,0.048,0.412,0.172,0.596,0.288
			c0.182,0.113,0.367,0.179,0.414,0.139c0.046-0.043,1.979,0.562,4.402,1.016c1.053,0.194,2.113,0.337,3.194,0.422
			c2.457,0.192,3.8,0.608,2.985,1.362c-0.812,0.754-0.604,1.605,0.477,1.828c1.082,0.222,3.059-0.651,4.401-1.889
			c1.35-1.233,4.399-2.617,6.776-3.262c5.595-1.516,11.662-4.039,13.14-8.377c0.232-0.682-1.064-0.534-1.388-0.521
			c-0.826-0.015-1.545-0.094-2.161-0.225c-1.177-0.252-1.356-1.427-0.584-2.144c0.771-0.717,1.177-1.325,0.901-1.362
			c-0.17-0.022-0.335-0.046-0.497-0.079c-0.457-0.083-0.887-0.189-1.298-0.313c-0.706-0.213-0.987-1.327-0.451-2.325
			c0.534-0.998,1.271-1.852,1.475-2.039c0.137-0.122,0.235-0.272,0.198-0.432c-0.02-0.078-0.041-0.159-0.061-0.242
			c-0.072-0.303-0.677-0.331-0.878-0.323c-2.362,0.085-4.313-0.111-5.838-0.527c-2.377-0.651-2.938-3.096-2.133-3.922
			c0.807-0.828,0.998-1.721,0.457-2.035c-0.54-0.316-1.059-0.505-1.187-0.373c-0.132,0.128,0.159-0.416,0.776-1.111
			c0.35-0.388,0.745-0.787,1.203-1.188c0.137-0.122,0.437-0.494,0.1-0.638c-0.457-0.192-1.638-0.896-3.055-1.841
			c-1.64-1.098-2.862-2.551-2.544-3.013c0.209-0.303,0.487-0.508,0.812-0.564c0.146-0.024,0.294-0.054,0.443-0.081
			c0.246-0.048,0.843-0.475,1.331-0.957c0.488-0.483,0.651-1.041,0.364-1.244c-0.164-0.116-0.338-0.238-0.521-0.368
			c-0.287-0.205-0.562-0.412-0.827-0.624c-0.449-0.357-1.573,0.129-2.523,1.114c-0.954,0.982-2.179,1.379-2.684,0.836
			c-0.511-0.545-0.307-1.602,0.364-2.286c0.677-0.686,1.793-1.346,2.414-1.669c0.44-0.229,0.76-0.531,0.789-0.923
			c0.126-1.514-1.517-3.103-3.391-4.917c-1.77-1.715-2.692-3.614-2.239-4.07c0.453-0.458,2.166-0.357,3.791,0.296
			s2.765,1.395,2.571,1.584c-0.196,0.189,0.453,0.632,1.441,0.993c0.986,0.362,1.892,0.558,2.016,0.432s0.303-0.192,0.397-0.146
			c0.093,0.048,0.074,0.181-0.043,0.303c-0.118,0.12-0.181,0.227-0.145,0.242c0.04,0.016,0.162-0.069,0.279-0.187
			c0.112-0.116,0.763,0.057,1.452,0.388c0.688,0.333,1.188,0.656,1.125,0.721c-0.062,0.065,0.504,0.357,1.262,0.653
			c0.761,0.299,1.29,0.627,1.181,0.73c-0.108,0.1-0.608,0.933-1.103,1.865c-0.292,0.558-0.586,1.122-0.873,1.693
			c-0.116,0.235-0.226,0.468-0.329,0.704c-0.179,0.39,0.731-0.264,2.03-1.458s2.664-2.007,3.057-1.817
			c0.242,0.118,0.48,0.231,0.715,0.338c0.354,0.166,0.712,0.355,1.069,0.558c0.584,0.331,0.083,1.525-1.103,2.636
			c-1.182,1.111-2.552,2.758-3.044,3.691c-0.294,0.558-0.586,1.122-0.874,1.695c-0.115,0.233-0.222,0.468-0.329,0.702
			c-0.176,0.39,1.153-0.649,2.968-2.318c0.582-0.536,1.188-1.094,1.819-1.675c1.812-1.669,4.895-1.845,6.989-0.549
			c0.349,0.218,0.699,0.425,1.052,0.623c2.148,1.205,3.136,2.527,1.89,3.682c-1.243,1.154-1.752,2.521-1.136,3.05
			c0.329,0.281,0.708,0.608,1.118,0.963c0.062,0.05,0.126,0.098,0.189,0.138c0.107,0.069,1.201-0.817,2.438-1.965
			c1.233-1.148,2.432-2.517,2.678-3.055c0.146-0.322,0.299-0.646,0.455-0.965c0.083-0.164,0.168-0.323,0.249-0.479
			c0.143-0.264,0.324-0.512,0.409-0.551c0.053-0.026,0.104-0.05,0.152-0.079c6.14-3.725,7.133-12.246,11.395-18.386
			c1.407-2.024,3.865-3.331,4.93-3.601c0.884-0.227,1.702-0.517,1.878-0.619c2.604-1.522,0.116,0.294-0.396,0.532
			c-2.021,0.937-0.449,1.456,0.967,1.188c7.939-1.508,2.706-0.148-0.558,2.335c-0.675,0.514,0.183,0.797,0.636,0.789
			c0.599-0.011,1.183,0,1.757,0.031c0.973,0.057,0.867,1.002-0.227,2.03c-1.1,1.028-2.396,2.608-2.885,3.541
			c-0.297,0.558-0.59,1.122-0.876,1.693c-0.117,0.233-0.224,0.466-0.327,0.702c-0.18,0.39,1.149-0.647,2.964-2.316
			c0.692-0.636,1.42-1.305,2.183-2.007c1.81-1.671,3.908-2.874,4.671-2.625c0.764,0.246,1.32,0.531,1.277,0.575
			c-0.053,0.046-0.502,0.83-0.994,1.763c-0.292,0.558-0.584,1.122-0.876,1.695c-0.113,0.235-0.222,0.47-0.326,0.704
			c-0.179,0.39,0.671-0.207,1.899-1.335c1.229-1.126,2.802-1.743,3.49-1.323c0.688,0.423,1.168,0.854,1.105,0.913
			c-0.064,0.061,0.015,0.13,0.166,0.161c0.157,0.033,1.926,1.213,3.655,2.972c2.062,2.098,3.84,4.527,5.421,7.144
			c2.244,3.701,0.58,5.061,4.044,6.972c1.747,0.967,6.453,0.246,7.848-0.007c11.529-2.12-0.802,2.432-5.485,4.379
			c-0.253,0.103-1.521,0.723-0.941,1.144c0.332,0.244,0.667,0.484,0.998,0.728c0.07,0.05,0.179,0.059,0.271,0.087
			c0.087,0.024,0.156,0.042,0.218,0.057c0.122,0.026,1.729,0.318,3.607,0.486c0.875,0.079,1.816,0.12,3.402,0.188
			C605.517,218.668,598.686,221.343,597.674,221.79z"/>
	</g>
</g>
<g opacity="0.1">
	<g id="Layer_7">
		<path d="M659.987,177.761c-0.737-0.454-1.657-0.493-2.432-0.106l-28.225,14.142c-0.845,0.425-1.378,1.291-1.378,2.235v0.729
			h-11.731c-1.022,0-1.85,0.83-1.85,1.851v31.687c0,1.021,0.828,1.85,1.85,1.85h11.731v1.375c0,0.904,0.488,1.737,1.276,2.179
			l28.223,15.851c0.381,0.213,0.801,0.319,1.221,0.319c0.439,0,0.873-0.114,1.263-0.342c0.766-0.446,1.238-1.27,1.238-2.157V179.89
			C661.175,179.023,660.725,178.216,659.987,177.761z M656.175,243.104l-23.225-13.041v-34.487l23.225-11.639V243.104z
			 M666.831,224.639c-0.21,0.113-0.438,0.168-0.662,0.168c-0.492,0-0.968-0.262-1.219-0.726c-0.367-0.673-0.118-1.515,0.556-1.882
			c3.784-2.056,6.044-5.934,6.044-10.373c0-4.439-2.261-8.316-6.044-10.373c-0.674-0.366-0.923-1.209-0.556-1.882
			c0.367-0.674,1.208-0.92,1.881-0.557c4.692,2.55,7.495,7.34,7.495,12.812S671.523,222.089,666.831,224.639z M669.181,232.503
			c-0.209,0.113-0.437,0.168-0.662,0.168c-0.491,0-0.968-0.263-1.219-0.726c-0.367-0.673-0.117-1.516,0.557-1.882
			c6.658-3.62,10.635-10.436,10.635-18.237c0-7.8-3.978-14.618-10.635-18.237c-0.674-0.366-0.924-1.208-0.557-1.882
			c0.367-0.674,1.209-0.92,1.881-0.557c7.567,4.112,12.086,11.842,12.086,20.676S676.749,228.389,669.181,232.503z M689.472,211.828
			c0,11.799-6.034,22.122-16.138,27.614c-0.209,0.113-0.437,0.169-0.661,0.169c-0.492,0-0.969-0.263-1.22-0.726
			c-0.367-0.674-0.117-1.515,0.559-1.881c9.194-4.997,14.687-14.407,14.687-25.175c0-10.767-5.493-20.178-14.687-25.176
			c-0.674-0.366-0.924-1.208-0.559-1.883c0.367-0.673,1.209-0.921,1.883-0.557C683.438,189.704,689.472,200.028,689.472,211.828z"/>
	</g>
</g>
<g>
	<path fill="#FBB03B" d="M221.895,317.814c-5.461-10.301-4.302-7.549-5.283-12.637c-0.893-4.586-0.442-9.893-0.692-15.391
		c-0.371-8.301-1.145-17.031-1.145-24.35c0-6.43-2.686-8.477-4.137-12.635c-2.108-6.05-3.8-11.584-6.659-14.472
		c-3.47-3.502-7.27-1.279-7.27-1.279c-2.507-6.48-3.164-8.13-5.798-11.332c-2.535-3.081-6.357-2.665-6.357-2.665
		s-1.874-9.305-6.153-14.002c-2.286-2.506-6.991-2.478-8.765-1.618c-1.279,0.622-2.997,2.619-4.796,3.931
		c-3.454,2.526-7.627,7.257-7.627,7.257s-0.708-2.155-2.677-6.007c-1.466-2.87-4.102-6.529-6.207-10.181
		c1.964-2.617,3.143-5.858,3.143-9.38c0-8.654-7.012-15.664-15.659-15.664c-8.648,0-15.659,7.011-15.659,15.664
		c0,7.4,5.141,13.585,12.04,15.222c0.408,1.461,0.838,2.946,1.281,4.468c1.19,4.07,3.178,9.404,4.822,13.638
		c2.203,5.654,4.055,10.271,5.106,16.209c0.77,4.355,0.315,9.339,0.128,13.501c-0.159,3.535-0.418,6.939-0.829,9.738
		c-0.559,3.818-1.77,6.502-2.416,8.217c-0.484,1.281-0.402,2.359-0.402,2.359s-0.888-0.02-1.944,0.332
		c-1.059,0.344-1.727,1.234-1.727,1.234l-1.762-1.186c0,0,0.33-0.639,0-1.775c-0.359-1.244-0.984-2.994-1.871-5.336
		c-0.36-0.959-0.706-2.861-0.989-3.762c-0.743-2.379-1.727-3.262-1.727-3.262s1.019-3.268-0.348-6.811
		c-1.428-3.709-4.574-8.697-8.068-12.004c-2.882-2.727-5.229-3.44-7.717-3.062c-3.103,0.469-4.284,4.062-3.707,7.84
		c0.35,2.287,1.367,5.363,1.605,6.943c0.576,3.773-1.506,8.232-1.429,10.838c0.1,3.365,1.854,5.236,3.465,12.355
		c0.573,2.549,2.235,5.326,2.996,8.238c1.126,4.311,1.817,8.416,2.319,9.455c2.651,5.498,13.188,12.396,22.973,21.363
		c5.511,5.055,12.035,5.074,16.539,9.646c2.76,2.801,4.276,7.482,7.12,11.715c11.79,17.562,46.337,0.404,55.412-12.615
		C223.182,323.473,222.74,319.418,221.895,317.814z M126.099,193.05c0-5.359,4.347-9.709,9.707-9.709
		c5.362,0,9.708,4.35,9.708,9.709c0,1.028-0.162,2.014-0.456,2.943c-2.885-6.008-5.571-11.103-11.273-9.401
		c-1.981,0.589-3.991,2.579-4.312,5.845c-0.229,2.358,0.157,5.311,0.879,8.641C127.783,199.331,126.099,196.389,126.099,193.05z"/>
</g>
<g opacity="0.1">
	<g>
		<path fill="#1D1D1B" d="M165.496,121.415c0.913-1.941-0.033-4.863-2.858-4.933c-31.526-0.794-72.325,1.65-103.853,0.442
			c-0.996-0.038-1.748,0.3-2.28,0.831c-1.077,0.438-1.919,1.408-1.919,2.925c-0.015,37.493-1.598,75.896,3.653,113.132
			c0.17,1.192,0.808,1.888,1.61,2.201c0.534,0.667,1.353,1.122,2.471,1.115c6.042-0.031,14.728-0.41,20.771-0.442
			c1.29-0.006,2.187-0.621,2.696-1.468c0.871-0.505,1.502-1.413,1.502-2.73v-37.563c0-0.166-0.026-0.312-0.046-0.466
			c0.02-0.14,0.046-0.281,0.046-0.417c0-1.988-1.524-3.077-3.313-3.315c-2.453-0.327-6.236-0.412-8.703-0.433
			c-0.135-0.782-0.282-2.886-0.423-3.667c2.251-0.548,5.884-0.742,8.241-0.761c0.377-0.002,0.707-0.073,1.017-0.17
			c1.744,0.107,3.438-0.925,3.183-3.145c-1.229-10.678-1.265-20.014-0.456-30.725c4.444-10.693,16.15-14.497,26.972-13.14v5.203
			c-19.415,0.719-23.138,19.77-18.886,36.449c0.107,0.418,0.28,0.761,0.481,1.062c0.234,1.428,1.287,2.697,3.156,2.697h8.176v5.314
			c-2.703,1.398-5.554,1.004-8.615,1.432c-0.036,0.006-0.065,0.023-0.099,0.03c-1.727-0.084-3.411,0.959-3.218,3.167
			c0.826,9.413,1.318,28.125,1.769,37.563c0.078,1.642,1.113,2.646,2.343,3.023c0.404,0.186,0.874,0.292,1.412,0.292
			c21.361,0.017,40.077,0.394,61.431-0.442c1.236-0.048,2.106-0.651,2.628-1.468c0.885-0.505,1.54-1.414,1.568-2.732
			c0.833-36.238-0.409-72.474-0.441-108.714C165.514,121.511,165.5,121.469,165.496,121.415z M159.365,227.927
			c-19.648,0.688-36.653,0.41-56.311,0.37c-0.37-9.172-0.791-23.897-1.396-31.371c3.556-0.729,6.953-0.793,10.062-2.676
			c1.064-0.642,1.521-1.586,1.563-2.544c0.051-0.236,0.078-0.49,0.078-0.758v-10.165c0-2.149-1.673-3.215-3.337-3.205
			c-0.271-0.067-0.552-0.11-0.861-0.11h-8.122c-2.985-12.858-1.3-27.598,15.191-26.958c1.683,0.064,2.69-0.925,3.049-2.156
			c0.683-0.532,1.15-1.354,1.15-2.485v-10.166c0-2.157-1.689-3.222-3.361-3.201c-15.362-2.599-30.687,2.798-36.736,17.788
			c-0.287,0.708-0.31,1.339-0.156,1.884c-0.702,9.516-0.729,17.67,0.153,27.157c-2.982,0.185-7.29,0.677-10.058,1.79
			c-1.556,0.625-2.648,1.978-2.384,3.682c-0.003,0.276,0.013,0.555,0.066,0.836c0.493,2.495,0.908,6.331,1.326,8.837
			c0.261,1.562,1.96,2.501,3.455,2.417c0.062,0.002,0.117,0.018,0.184,0.018c2.138,0,5.602,0.018,7.732,0.144v33.043
			c-4.527,0.083-11.706,0.288-16.233,0.364c-4.764-35.14-3.314-71.439-3.22-106.837c29.948,0.967,68.199-1.099,97.686-0.585
			C158.95,158.003,160.081,192.962,159.365,227.927z"/>
	</g>
</g>
<g opacity="0.1">
	<g id="text">
	</g>
	<g id="_x31_">
	</g>
	<g id="_x32_">
	</g>
	<g id="_x33__1_">
	</g>
	<g id="_x34_">
	</g>
	<g id="_x35_">
	</g>
	<g id="_x36_">
	</g>
	<g id="_x37_">
	</g>
	<g id="_x38_">
	</g>
	<g id="_x39_">
	</g>
	<g id="_x31_0">
	</g>
	<g id="_x31_1">
	</g>
	<g id="_x31_2">
	</g>
	<g id="_x31_3">
	</g>
	<g id="_x31_4">
	</g>
	<g id="_x31_5">
	</g>
	<g id="_x31_6">
	</g>
	<g id="_x31_7">
	</g>
	<g id="_x31_8">
	</g>
	<g id="_x31_9">
	</g>
	<g id="_x32_0">
	</g>
	<g id="_x32_1">
	</g>
	<g id="_x32_2">
	</g>
	<g id="_x32_3">
	</g>
	<g id="_x32_4">
	</g>
	<g id="_x32_5">
	</g>
	<g id="_x32_6">
	</g>
	<g id="_x32_7">
	</g>
	<g id="_x32_8">
	</g>
	<g id="_x32_9">
	</g>
	<g id="_x33_0">
	</g>
	<g id="_x33_1">
	</g>
	<g id="_x33_2">
	</g>
	<g id="_x33_3">
	</g>
	<g id="_x33_4">
	</g>
	<g id="_x33_5">
	</g>
	<g id="_x33_6">
	</g>
	<g id="_x33_7">
	</g>
	<g id="_x33_8">
	</g>
	<g id="_x33_9">
	</g>
	<g id="_x34_0">
	</g>
	<g id="_x34_1">
	</g>
	<g id="_x34_2">
	</g>
	<g id="_x34_3">
	</g>
	<g id="_x34_4">
	</g>
	<g id="_x34_5">
	</g>
	<g id="_x34_6">
	</g>
	<g id="_x34_7">
	</g>
	<g id="_x34_8">
	</g>
	<g id="_x34_9">
	</g>
	<g id="_x35_0">
	</g>
	<g id="_x35_1">
	</g>
	<g id="_x35_2">
	</g>
	<g id="_x35_3">
	</g>
	<g id="_x35_4">
	</g>
	<g id="_x35_5">
	</g>
	<g id="_x35_6">
	</g>
	<g id="_x35_7">
	</g>
	<g id="_x35_8">
	</g>
	<g id="_x35_9">
	</g>
	<g id="_x36_0">
	</g>
	<g id="_x36_1">
	</g>
	<g id="_x36_2">
	</g>
	<g id="_x36_3">
	</g>
	<g id="_x36_4">
	</g>
	<g id="_x36_5">
	</g>
	<g id="_x36_6">
	</g>
	<g id="_x36_7">
	</g>
	<g id="_x36_8">
	</g>
	<g id="_x36_9">
	</g>
	<g id="_x37_0">
	</g>
	<g id="_x37_1">
	</g>
	<g id="_x37_2">
	</g>
	<g id="_x37_3">
	</g>
	<g id="_x37_4">
	</g>
	<g id="_x37_5">
	</g>
	<g id="_x37_6">
	</g>
	<g id="_x37_7">
	</g>
	<g id="_x37_8">
	</g>
	<g id="_x37_9">
	</g>
	<g id="_x38_0">
	</g>
	<g id="_x38_1">
	</g>
	<g id="_x38_2">
	</g>
	<g id="_x38_3">
	</g>
	<g id="_x38_4">
	</g>
	<g id="_x38_5">
	</g>
	<g id="_x38_6">
	</g>
	<g id="_x38_7">
	</g>
	<g id="_x38_8">
	</g>
	<g id="_x38_9">
	</g>
	<g id="_x39_0">
	</g>
	<g id="_x39_1">
	</g>
	<g id="_x39_2">
	</g>
	<g id="_x39_3">
	</g>
	<g id="_x39_4">
	</g>
	<g id="_x39_5">
	</g>
	<g id="_x39_6">
	</g>
	<g id="_x39_7">
	</g>
	<g id="_x39_8">
	</g>
	<g id="_x39_9">
	</g>
	<g id="_x31_00">
	</g>
	<g id="_x31_01">
	</g>
	<g id="_x31_02">
	</g>
	<g id="_x31_03">
	</g>
	<g id="_x31_04">
	</g>
	<g id="_x31_05">
	</g>
	<g id="_x31_06">
	</g>
	<g id="_x31_07">
	</g>
	<g id="_x31_08">
	</g>
	<g id="_x31_09">
	</g>
	<g id="_x31_10">
	</g>
	<g id="_x31_11">
	</g>
	<g id="_x31_12">
	</g>
	<g id="_x31_13">
	</g>
	<g id="_x31_14">
	</g>
	<g id="_x31_15">
	</g>
	<g id="_x31_16">
	</g>
	<g id="_x31_17">
	</g>
	<g id="_x31_18">
	</g>
	<g id="_x31_19">
	</g>
	<g id="_x31_20">
	</g>
	<g id="_x31_21">
	</g>
	<g id="_x31_22">
	</g>
	<g id="_x31_23">
	</g>
	<g id="_x31_24">
	</g>
	<g id="_x31_25">
	</g>
	<g id="_x31_26">
	</g>
	<g id="_x31_27">
	</g>
	<g id="_x31_28">
	</g>
	<g id="_x31_29">
	</g>
	<g id="_x31_30">
	</g>
	<g id="_x31_31">
	</g>
	<g id="_x31_32">
	</g>
	<g id="_x31_33">
	</g>
	<g id="_x31_34">
	</g>
	<g id="_x31_35">
	</g>
	<g id="_x31_36">
	</g>
	<g id="_x31_37">
	</g>
	<g id="_x31_38">
	</g>
	<g id="_x31_39">
	</g>
	<g id="_x31_40">
	</g>
	<g id="_x31_41">
	</g>
	<g id="_x31_42">
	</g>
	<g id="_x31_43">
	</g>
	<g id="_x31_44">
	</g>
	<g id="_x31_45">
	</g>
	<g id="_x31_46">
	</g>
	<g id="_x31_47">
	</g>
	<g id="_x31_48">
	</g>
	<g id="_x31_49">
	</g>
	<g id="_x31_50">
	</g>
	<g id="_x31_51">
	</g>
	<g id="_x31_52">
	</g>
	<g id="_x31_53">
	</g>
	<g id="_x31_54">
	</g>
	<g id="_x31_55">
	</g>
	<g id="_x31_56">
	</g>
	<g id="_x31_57">
	</g>
	<g id="_x31_58">
	</g>
	<g id="_x31_59">
	</g>
	<g id="_x31_60">
	</g>
	<g id="_x31_61">
	</g>
	<g id="_x31_62">
	</g>
	<g id="_x31_63">
	</g>
	<g id="_x31_64">
	</g>
	<g id="_x31_65">
	</g>
	<g id="_x31_66">
	</g>
	<g id="_x31_67">
	</g>
	<g id="_x31_68">
	</g>
	<g id="_x31_69">
		<path d="M986.57,217.579h-59.385v-63.036h15.276v23.851v8.572h8.212h17.92v12.663l20.673-17.784l-20.673-16.113v12.668h-17.92
			v-23.851h32.083v-0.518c20.829-3.534,35.214-23.784,36.324-44.435c-1.354-25.448-19.481-43.573-44.94-44.943
			c-0.492-0.022-0.957,0.022-1.444,0.011c0.565-2.508,0.94-5.054,1.085-7.614c-1.277-23.562-18.045-40.318-41.598-41.59
			c-13.815-0.74-25.329,6.309-32.72,16.626c-7.389-9.724-18.872-15.875-32.751-16.626c-23.5-1.267-40.41,19.949-41.579,41.59
			c-0.136,2.783,0.045,5.455,0.479,8.043c-1.472-0.212-2.97-0.354-4.498-0.44c-25.403-1.366-43.683,21.566-44.943,44.943
			c-1.291,23.901,18.925,41.49,40.799,44.535v0.411h35.481v23.139h-17.92v-12.669l-20.672,17.784l20.672,16.113v-12.662h26.133
			v-0.529v-8.037v-23.139h14.478v63.036h-73.316v-12.668l-20.673,17.783l20.673,16.114v-12.663h73.322h4.111h4.107v-71.603h12.944
			v119.131h-12.666l17.784,20.672l16.114-20.672h-12.666V154.542h14.09v71.608h1.567h6.646h59.391v12.662l20.672-17.783
			l-20.672-16.114V217.579z"/>
	</g>
	<g id="_x31_70">
	</g>
	<g id="_x31_71">
	</g>
	<g id="_x31_72">
	</g>
	<g id="_x31_73">
	</g>
	<g id="_x31_74">
	</g>
	<g id="_x31_75">
	</g>
	<g id="_x31_76">
	</g>
	<g id="_x31_77">
	</g>
	<g id="_x31_78">
	</g>
	<g id="_x31_79">
	</g>
	<g id="_x31_80">
	</g>
	<g id="_x31_81">
	</g>
	<g id="_x31_82">
	</g>
	<g id="_x31_83">
	</g>
	<g id="_x31_84">
	</g>
	<g id="_x31_85">
	</g>
	<g id="_x31_86">
	</g>
	<g id="_x31_87">
	</g>
	<g id="_x31_88">
	</g>
	<g id="_x31_89">
	</g>
	<g id="_x31_90">
	</g>
</g>
<g opacity="0.1">
	<g>
		<path d="M1080.503,94.682l-5.902-5.901c-3.594-3.596-9.418-3.595-13.012,0l-1.301,1.299l-0.977,0.977l18.916,18.915l0.977-0.976
			l1.299-1.301C1084.097,104.1,1084.097,98.276,1080.503,94.682z"/>
		<polygon points="1054.7,95.665 1002.22,148.146 1021.136,167.061 1073.616,114.583 1073.942,114.255 1055.027,95.342 		"/>
		<path d="M988.29,180.99l28.732-9.297l-19.435-19.435L988.29,180.99z M1010.168,170.043l-9.316,3.06l-4.64-4.635l3.026-9.354
			L1010.168,170.043z"/>
	</g>
</g>
<g opacity="0.1">
	<g>
		<g>
			<path d="M1293.9,382.91c-87.674,0-159-71.326-159-159c0-87.671,71.326-159,159-159s159,71.329,159,159
				C1452.9,311.584,1381.574,382.91,1293.9,382.91z M1293.9,83.99c-77.152,0-139.92,62.765-139.92,139.92
				c0,77.153,62.768,139.92,139.92,139.92s139.92-62.768,139.92-139.92C1433.82,146.754,1371.053,83.99,1293.9,83.99z"/>
		</g>
		<g>
			<path d="M1318.558,309.254c-3.308-2.434-3.658-6.086-3.658-6.086l-1.239-7.926h-39.523l-1.242,7.922c0,0-0.344,3.656-3.651,6.09
				c-3.305,2.436-5.913,4.521-3.305,4.869c2.513,0.336,26.217,0.031,27.962,0c1.752,0.031,25.449,0.336,27.962,0
				C1324.465,313.775,1321.859,311.689,1318.558,309.254z"/>
			<g>
				<path d="M1249.381,245.924c10.559-0.078,11.875-2.624,15.315-13.227c6.348-16.729,34.931,4.379,17.217,11.708
					C1264.196,251.738,1238.822,246.002,1249.381,245.924z"/>
				<path d="M1357.646,135.674c-5.121-4.128-13.611-2.097-18.959,4.54l-54.172,76.963c-5.348,6.633-5.319,5.366-0.199,9.493
					c5.125,4.127,3.889,4.426,9.236-2.211l63.684-69.293C1362.587,148.528,1362.771,139.801,1357.646,135.674z M1343.719,144.885
					c0,0-0.792-0.92-3.432-3.031c3.956-6.463,11.735-5.276,11.735-5.276C1344.644,140.935,1343.719,144.885,1343.719,144.885z"/>
			</g>
			<path d="M1381.667,161.685h-23.818l-10.521,11.447h30.526v91.581h-167.9v-91.581h97.674l8.062-11.447h-109.555
				c-4.214,0-7.634,3.416-7.634,7.631v110.663c0,4.215,3.42,7.631,7.634,7.631h175.533c4.218,0,7.634-3.416,7.634-7.631V169.316
				C1389.301,165.098,1385.885,161.685,1381.667,161.685z"/>
		</g>
	</g>
</g>
<image overflow="visible" opacity="0.1" width="960" height="634" xlink:href="../../../../../Users/Gareth/Desktop/Screen Shot 2014-09-01 at 22.21.29.png"  transform="matrix(0.9792 -0.2029 0.2029 0.9792 1452.9004 57.6152)">
</image>
</svg>
