<?xml version="1.0" encoding="utf-8"?>
<!-- Generator: Adobe Illustrator 15.0.0, SVG Export Plug-In . SVG Version: 6.00 Build 0)  -->
<!DOCTYPE svg PUBLIC "-//W3C//DTD SVG 1.1//EN" "http://www.w3.org/Graphics/SVG/1.1/DTD/svg11.dtd">
<svg version="1.1" id="Capa_1" xmlns="http://www.w3.org/2000/svg" xmlns:xlink="http://www.w3.org/1999/xlink" x="0px" y="0px"
	 width="64px" height="64px" viewBox="0 0 64 64" enable-background="new 0 0 64 64" xml:space="preserve">
<path d="M62.182,54.896c0.082-0.106,0.147-0.229,0.209-0.398c0.031-0.096,0.051-0.195,0.062-0.309l0.008-23.932l-9.226,0.002
	l1.863-2.018l0.084-0.104c0.082-0.106,0.147-0.229,0.209-0.397c0.031-0.095,0.051-0.195,0.062-0.309L55.459,3.5L31.583,3.505
	c-0.128,0.004-0.253,0.026-0.425,0.083c-0.125,0.047-0.243,0.114-0.356,0.204l-6.125,5.651c-0.037,0.034-0.071,0.07-0.104,0.108
	H24.25V30.26L9.625,30.263c-0.129,0.004-0.254,0.027-0.428,0.083c-0.123,0.047-0.238,0.113-0.347,0.198l-6.136,5.66
	c-0.035,0.032-0.068,0.067-0.1,0.104H2.292v25.157h24.877l4.081-4.421v4.421h24.877l5.971-6.468L62.182,54.896z M28.465,9.551
	l3.68-3.4h18.791l-3.4,3.4H28.465z M6.507,36.309l3.68-3.399H24.25v1.801h2.926l-1.6,1.601H6.507V36.309z M26.875,31.908v-0.651
	v-0.499v-0.499V19.867H26.9v-7.666h19.857v7.666h0.024v10.394v0.497v0.52v0.63v0.5v0.15h-7.996H38.05h-0.959h-0.737h-0.729h-2.125
	h-0.498h-0.5H30.74h-0.707h-3.158v-0.15V31.908z M53.758,38.959v19.857H33.9V38.959H53.758z M35.465,36.309l1.73-1.6h11.932
	l1.662-1.801h7.145l-3.399,3.4H35.465L35.465,36.309z M49.523,30.758l-0.439,0.492v-0.492v-0.497V12.15l4.5-5.15v19.22l-3.615,4.041
	L49.523,30.758z M4.942,58.816V38.959H24.8v19.857H4.942z M27.084,39.15l3.881-4.441l0.437-0.5L31.584,34v0.209v0.5v1.589V53.22
	l-0.334,0.373l-4.166,4.657V39.15z M56.084,39.15l4.5-5.15v19.22l-4.5,5.03V39.15z"/>
</svg>
