<?xml version="1.0" encoding="utf-8"?>
<!-- Generator: Adobe Illustrator 15.0.0, SVG Export Plug-In . SVG Version: 6.00 Build 0)  -->
<!DOCTYPE svg PUBLIC "-//W3C//DTD SVG 1.1//EN" "http://www.w3.org/Graphics/SVG/1.1/DTD/svg11.dtd">
<svg version="1.1" id="Layer_1" xmlns="http://www.w3.org/2000/svg" xmlns:xlink="http://www.w3.org/1999/xlink" x="0px" y="0px"
	 width="165.908px" height="66.25px" viewBox="0 0 165.908 66.25" enable-background="new 0 0 165.908 66.25" xml:space="preserve">
<g>
	<g>
		<g>
			<path fill="#FBB03B" stroke="#FBB03B" stroke-miterlimit="10" d="M37.58,63.172c-15.898,0-28.832-12.935-28.832-28.832
				c0-15.898,12.934-28.832,28.832-28.832c15.897,0,28.832,12.934,28.832,28.832C66.412,50.237,53.478,63.172,37.58,63.172z
				 M37.58,8.968c-13.991,0-25.372,11.382-25.372,25.372S23.589,59.712,37.58,59.712c13.99,0,25.372-11.382,25.372-25.372
				S51.57,8.968,37.58,8.968z"/>
		</g>
		<g>
			<path d="M47.001,24.919c0.333,0.333,0.873,0.333,1.205,0l6.425-6.424c0.332-0.333,0.332-0.873,0-1.205s-0.873-0.333-1.204,0
				l-6.426,6.424C46.669,24.047,46.669,24.585,47.001,24.919z"/>
			<g>
				<path d="M53.074,23.663l-1.205-1.204l-1.512,1.512c0.211,0.998-0.071,2.079-0.846,2.854c-1.22,1.22-3.197,1.22-4.417,0
					c-1.22-1.219-1.22-3.197,0-4.417c0.774-0.775,1.855-1.056,2.854-0.846l1.513-1.513l-1.204-1.205
					c-0.831-0.83-9.406-0.83-10.239,0L20.904,35.959c-0.832,0.832-0.832,2.181,0,3.013l12.045,12.044c0.832,0.83,2.18,0.83,3.012,0
					l17.114-17.113C53.906,33.07,53.906,24.495,53.074,23.663z"/>
			</g>
		</g>
	</g>
</g>
<g>
	<path d="M75.678,38.491c-0.324,0-0.675-0.008-1.052-0.023c-0.378-0.016-0.755-0.038-1.132-0.069
		c-0.378-0.03-0.751-0.069-1.121-0.115c-0.369-0.046-0.708-0.107-1.016-0.185V22.573c0.308-0.077,0.646-0.139,1.016-0.185
		c0.37-0.046,0.743-0.084,1.121-0.115c0.377-0.031,0.751-0.054,1.12-0.069c0.37-0.015,0.717-0.023,1.04-0.023
		c0.924,0,1.79,0.069,2.599,0.208s1.51,0.374,2.103,0.705c0.593,0.332,1.059,0.767,1.397,1.306s0.509,1.201,0.509,1.987
		c0,0.878-0.208,1.598-0.624,2.16c-0.416,0.562-0.97,0.982-1.663,1.259c0.939,0.277,1.687,0.716,2.241,1.317
		c0.554,0.601,0.831,1.448,0.831,2.542c0,1.602-0.589,2.807-1.768,3.616C80.102,38.087,78.233,38.491,75.678,38.491z M73.575,29.088
		h2.356c0.555,0,1.078-0.039,1.57-0.116c0.493-0.077,0.921-0.215,1.282-0.416c0.362-0.2,0.647-0.462,0.855-0.785
		c0.208-0.324,0.312-0.731,0.312-1.225c0-0.462-0.107-0.851-0.323-1.167c-0.216-0.316-0.513-0.57-0.89-0.763
		c-0.378-0.192-0.82-0.335-1.328-0.427c-0.509-0.092-1.048-0.139-1.617-0.139c-0.57,0-1.017,0.008-1.34,0.023
		c-0.324,0.016-0.616,0.039-0.878,0.069V29.088z M73.575,30.89v5.637c0.169,0.016,0.369,0.031,0.601,0.046
		c0.2,0.016,0.435,0.027,0.704,0.035s0.581,0.012,0.936,0.012c0.662,0,1.29-0.043,1.884-0.127c0.593-0.085,1.112-0.235,1.559-0.451
		c0.447-0.215,0.805-0.516,1.074-0.901c0.27-0.385,0.405-0.869,0.405-1.455c0-0.523-0.101-0.966-0.301-1.328
		s-0.489-0.65-0.866-0.867c-0.378-0.215-0.828-0.37-1.352-0.462c-0.524-0.092-1.109-0.139-1.756-0.139H73.575z"/>
	<path d="M90.51,26.085c0.185,0,0.396,0.011,0.635,0.035c0.239,0.023,0.474,0.054,0.705,0.092c0.231,0.039,0.442,0.077,0.636,0.116
		c0.192,0.039,0.335,0.073,0.427,0.104l-0.369,1.872c-0.17-0.062-0.451-0.135-0.844-0.22c-0.393-0.084-0.897-0.127-1.513-0.127
		c-0.401,0-0.798,0.042-1.19,0.127c-0.393,0.085-0.65,0.143-0.773,0.173v10.096h-2.148V26.847c0.508-0.185,1.14-0.358,1.895-0.52
		C88.723,26.166,89.57,26.085,90.51,26.085z"/>
	<path d="M98.872,26.039c0.862,0,1.59,0.112,2.184,0.335c0.593,0.224,1.07,0.54,1.432,0.947c0.362,0.408,0.62,0.894,0.774,1.456
		c0.153,0.562,0.231,1.182,0.231,1.86v7.508c-0.186,0.031-0.443,0.073-0.774,0.127c-0.331,0.055-0.705,0.104-1.12,0.15
		c-0.416,0.046-0.867,0.089-1.352,0.127c-0.485,0.038-0.967,0.058-1.444,0.058c-0.678,0-1.302-0.069-1.871-0.208
		c-0.57-0.139-1.062-0.357-1.479-0.658c-0.416-0.3-0.739-0.696-0.971-1.189c-0.23-0.493-0.347-1.086-0.347-1.779
		c0-0.662,0.135-1.232,0.404-1.709c0.27-0.477,0.636-0.862,1.098-1.155c0.462-0.292,1.001-0.508,1.617-0.647s1.263-0.208,1.94-0.208
		c0.216,0,0.439,0.012,0.67,0.035c0.231,0.023,0.451,0.054,0.659,0.093c0.207,0.039,0.389,0.073,0.543,0.104
		c0.153,0.031,0.262,0.054,0.323,0.069v-0.601c0-0.354-0.039-0.705-0.116-1.051c-0.077-0.347-0.216-0.655-0.415-0.924
		c-0.201-0.27-0.474-0.485-0.82-0.647s-0.797-0.243-1.352-0.243c-0.709,0-1.329,0.05-1.86,0.15s-0.928,0.204-1.189,0.312
		l-0.254-1.779c0.277-0.123,0.739-0.242,1.386-0.358C97.417,26.096,98.117,26.039,98.872,26.039z M99.057,36.805
		c0.509,0,0.959-0.012,1.352-0.035c0.393-0.022,0.72-0.064,0.982-0.127v-3.581c-0.154-0.077-0.404-0.142-0.751-0.196
		c-0.347-0.054-0.767-0.081-1.259-0.081c-0.324,0-0.667,0.023-1.028,0.069c-0.362,0.046-0.693,0.143-0.994,0.289
		c-0.3,0.147-0.551,0.347-0.75,0.601c-0.201,0.254-0.301,0.589-0.301,1.005c0,0.77,0.246,1.305,0.739,1.606
		C97.54,36.654,98.21,36.805,99.057,36.805z"/>
	<path d="M107.051,26.686c0.492-0.123,1.146-0.254,1.963-0.393c0.816-0.139,1.756-0.208,2.819-0.208
		c0.954,0,1.748,0.135,2.379,0.404c0.632,0.27,1.136,0.647,1.514,1.132c0.377,0.485,0.643,1.067,0.797,1.744
		c0.154,0.678,0.231,1.425,0.231,2.241v6.746h-2.148v-6.284c0-0.739-0.051-1.371-0.15-1.895c-0.101-0.523-0.266-0.947-0.497-1.271
		c-0.23-0.323-0.539-0.558-0.924-0.705c-0.386-0.146-0.863-0.219-1.433-0.219c-0.23,0-0.47,0.008-0.716,0.023
		c-0.247,0.016-0.481,0.035-0.705,0.058s-0.424,0.05-0.601,0.081s-0.305,0.054-0.381,0.069v10.142h-2.148V26.686z"/>
	<path d="M128.074,20.794l2.148-0.37v17.581c-0.493,0.139-1.125,0.277-1.895,0.416c-0.771,0.139-1.656,0.208-2.657,0.208
		c-0.924,0-1.756-0.146-2.495-0.439c-0.739-0.292-1.371-0.708-1.895-1.247s-0.928-1.197-1.213-1.976
		c-0.285-0.777-0.427-1.652-0.427-2.622c0-0.924,0.119-1.771,0.357-2.542c0.239-0.77,0.589-1.432,1.052-1.987
		c0.462-0.554,1.027-0.985,1.697-1.293c0.671-0.308,1.437-0.462,2.299-0.462c0.693,0,1.306,0.093,1.837,0.277
		c0.531,0.185,0.928,0.362,1.19,0.531V20.794z M128.074,28.88c-0.263-0.216-0.64-0.423-1.133-0.624c-0.493-0.2-1.032-0.3-1.617-0.3
		c-0.616,0-1.144,0.112-1.582,0.335c-0.439,0.224-0.797,0.532-1.074,0.924s-0.478,0.859-0.601,1.397
		c-0.124,0.54-0.186,1.117-0.186,1.733c0,1.402,0.347,2.483,1.04,3.246s1.617,1.144,2.772,1.144c0.585,0,1.074-0.026,1.467-0.081
		c0.393-0.054,0.696-0.111,0.913-0.173V28.88z"/>
	<path d="M134.981,24.167c-0.386,0-0.713-0.127-0.982-0.381c-0.27-0.254-0.404-0.597-0.404-1.028c0-0.431,0.135-0.774,0.404-1.028
		c0.27-0.254,0.597-0.381,0.982-0.381c0.385,0,0.712,0.127,0.981,0.381c0.27,0.254,0.404,0.597,0.404,1.028
		c0,0.432-0.135,0.774-0.404,1.028C135.693,24.04,135.366,24.167,134.981,24.167z M136.067,38.353h-2.148V26.339h2.148V38.353z"/>
	<path d="M139.764,26.686c0.492-0.123,1.146-0.254,1.963-0.393c0.816-0.139,1.756-0.208,2.819-0.208
		c0.954,0,1.748,0.135,2.379,0.404c0.632,0.27,1.136,0.647,1.514,1.132c0.377,0.485,0.643,1.067,0.797,1.744
		c0.154,0.678,0.231,1.425,0.231,2.241v6.746h-2.148v-6.284c0-0.739-0.051-1.371-0.15-1.895c-0.101-0.523-0.266-0.947-0.497-1.271
		c-0.23-0.323-0.539-0.558-0.924-0.705c-0.386-0.146-0.863-0.219-1.433-0.219c-0.23,0-0.47,0.008-0.716,0.023
		c-0.247,0.016-0.481,0.035-0.705,0.058s-0.424,0.05-0.601,0.081s-0.305,0.054-0.381,0.069v10.142h-2.148V26.686z"/>
	<path d="M160.556,37.151c-0.185,0.123-0.543,0.281-1.074,0.474s-1.151,0.289-1.86,0.289c-0.724,0-1.405-0.116-2.044-0.347
		c-0.64-0.231-1.198-0.59-1.675-1.074c-0.478-0.485-0.855-1.09-1.133-1.814c-0.277-0.724-0.415-1.586-0.415-2.587
		c0-0.878,0.13-1.683,0.393-2.415c0.262-0.731,0.643-1.363,1.144-1.895c0.5-0.531,1.112-0.947,1.837-1.248
		c0.724-0.3,1.539-0.45,2.448-0.45c1.001,0,1.875,0.073,2.622,0.219c0.747,0.146,1.375,0.281,1.883,0.404v10.72
		c0,1.848-0.478,3.188-1.432,4.02c-0.955,0.832-2.403,1.248-4.344,1.248c-0.755,0-1.467-0.062-2.137-0.186s-1.252-0.27-1.744-0.438
		l0.393-1.871c0.431,0.169,0.959,0.319,1.582,0.45c0.624,0.131,1.274,0.196,1.952,0.196c1.278,0,2.199-0.254,2.761-0.763
		c0.562-0.508,0.844-1.316,0.844-2.426V37.151z M160.532,28.233c-0.216-0.062-0.504-0.119-0.866-0.173
		c-0.362-0.054-0.851-0.081-1.467-0.081c-1.155,0-2.045,0.377-2.669,1.132c-0.623,0.755-0.936,1.756-0.936,3.003
		c0,0.693,0.089,1.286,0.266,1.779c0.178,0.493,0.416,0.901,0.717,1.225c0.3,0.323,0.646,0.562,1.039,0.716
		c0.394,0.154,0.798,0.231,1.213,0.231c0.57,0,1.094-0.081,1.571-0.242c0.478-0.162,0.854-0.351,1.132-0.566V28.233z"/>
	<path d="M72.646,52.825c-0.168,0-0.351-0.004-0.546-0.013c-0.196-0.008-0.393-0.02-0.589-0.035
		c-0.195-0.017-0.39-0.036-0.582-0.061c-0.191-0.023-0.367-0.056-0.527-0.096v-8.064c0.16-0.04,0.336-0.071,0.527-0.096
		c0.192-0.024,0.387-0.044,0.582-0.06c0.196-0.017,0.391-0.028,0.582-0.036c0.192-0.008,0.372-0.013,0.54-0.013
		c0.48,0,0.931,0.036,1.351,0.108s0.783,0.194,1.092,0.366c0.308,0.172,0.55,0.397,0.726,0.678s0.265,0.624,0.265,1.032
		c0,0.456-0.108,0.83-0.324,1.122s-0.504,0.51-0.864,0.653c0.488,0.145,0.876,0.372,1.164,0.685c0.288,0.312,0.432,0.752,0.432,1.32
		c0,0.832-0.306,1.458-0.918,1.878C74.944,52.615,73.974,52.825,72.646,52.825z M71.554,47.941h1.225
		c0.288,0,0.56-0.021,0.815-0.061s0.479-0.112,0.666-0.216c0.188-0.104,0.336-0.24,0.444-0.408s0.162-0.38,0.162-0.636
		c0-0.24-0.057-0.442-0.168-0.606c-0.112-0.164-0.267-0.296-0.462-0.396c-0.196-0.101-0.426-0.174-0.69-0.223
		c-0.264-0.048-0.544-0.071-0.84-0.071s-0.528,0.004-0.696,0.012s-0.319,0.021-0.456,0.036V47.941z M71.554,48.877v2.928
		c0.088,0.009,0.192,0.017,0.312,0.024c0.104,0.008,0.226,0.014,0.366,0.018c0.14,0.004,0.302,0.006,0.485,0.006
		c0.344,0,0.67-0.021,0.979-0.065c0.308-0.044,0.578-0.122,0.81-0.234c0.232-0.111,0.418-0.268,0.559-0.468
		c0.14-0.2,0.21-0.452,0.21-0.756c0-0.272-0.053-0.502-0.156-0.69c-0.104-0.188-0.254-0.338-0.45-0.45
		c-0.196-0.111-0.43-0.191-0.702-0.239c-0.271-0.048-0.576-0.072-0.912-0.072H71.554z"/>
	<path d="M80.35,46.381c0.097,0,0.206,0.006,0.33,0.019c0.124,0.012,0.246,0.027,0.366,0.048c0.12,0.02,0.229,0.04,0.33,0.06
		c0.1,0.021,0.174,0.038,0.222,0.054l-0.191,0.973c-0.089-0.032-0.234-0.07-0.438-0.114s-0.466-0.066-0.786-0.066
		c-0.208,0-0.414,0.022-0.618,0.066c-0.203,0.044-0.338,0.074-0.401,0.09v5.244h-1.116v-5.976c0.264-0.097,0.592-0.187,0.984-0.271
		C79.422,46.423,79.862,46.381,80.35,46.381z"/>
	<path d="M84.693,46.356c0.448,0,0.826,0.059,1.135,0.175c0.308,0.116,0.556,0.28,0.743,0.491c0.188,0.213,0.322,0.465,0.402,0.757
		s0.12,0.613,0.12,0.966v3.899c-0.096,0.017-0.23,0.038-0.402,0.066s-0.365,0.054-0.582,0.078c-0.216,0.023-0.449,0.046-0.701,0.065
		c-0.252,0.021-0.503,0.03-0.75,0.03c-0.353,0-0.677-0.036-0.973-0.107c-0.296-0.072-0.552-0.187-0.768-0.343
		c-0.216-0.155-0.384-0.361-0.504-0.617c-0.12-0.257-0.181-0.564-0.181-0.925c0-0.344,0.07-0.64,0.21-0.888
		c0.141-0.248,0.33-0.448,0.57-0.6c0.24-0.152,0.521-0.265,0.84-0.336c0.32-0.072,0.656-0.108,1.008-0.108
		c0.112,0,0.229,0.006,0.349,0.018c0.12,0.013,0.233,0.028,0.342,0.049c0.108,0.02,0.202,0.038,0.282,0.054s0.136,0.028,0.168,0.036
		v-0.312c0-0.184-0.021-0.366-0.061-0.546s-0.111-0.34-0.216-0.479c-0.104-0.141-0.246-0.252-0.426-0.336s-0.414-0.126-0.702-0.126
		c-0.368,0-0.689,0.025-0.966,0.077c-0.276,0.053-0.482,0.106-0.618,0.162l-0.132-0.924c0.144-0.063,0.384-0.126,0.72-0.186
		C83.938,46.387,84.302,46.356,84.693,46.356z M84.79,51.949c0.264,0,0.498-0.006,0.702-0.019c0.203-0.012,0.373-0.033,0.51-0.065
		v-1.86c-0.08-0.04-0.21-0.074-0.391-0.102c-0.18-0.028-0.397-0.042-0.653-0.042c-0.168,0-0.347,0.012-0.534,0.035
		c-0.188,0.024-0.36,0.074-0.516,0.15c-0.156,0.076-0.286,0.18-0.391,0.312c-0.104,0.132-0.156,0.306-0.156,0.521
		c0,0.4,0.128,0.678,0.385,0.834C84.002,51.871,84.35,51.949,84.79,51.949z"/>
	<path d="M88.941,46.693c0.256-0.064,0.596-0.133,1.021-0.204c0.424-0.072,0.911-0.108,1.464-0.108c0.495,0,0.907,0.07,1.235,0.21
		c0.328,0.141,0.59,0.336,0.786,0.588s0.334,0.555,0.414,0.906c0.08,0.353,0.12,0.74,0.12,1.164v3.504h-1.116v-3.264
		c0-0.385-0.025-0.712-0.078-0.984c-0.052-0.271-0.138-0.492-0.258-0.66s-0.28-0.29-0.479-0.366c-0.2-0.075-0.448-0.113-0.744-0.113
		c-0.12,0-0.244,0.004-0.372,0.012s-0.25,0.018-0.366,0.03c-0.116,0.012-0.22,0.025-0.312,0.042
		c-0.093,0.016-0.158,0.028-0.198,0.036v5.268h-1.116V46.693z"/>
	<path d="M99.861,43.633l1.116-0.191v9.132c-0.257,0.071-0.584,0.144-0.984,0.216s-0.86,0.107-1.38,0.107
		c-0.48,0-0.912-0.075-1.296-0.228s-0.712-0.368-0.984-0.648c-0.271-0.279-0.481-0.621-0.63-1.025s-0.222-0.858-0.222-1.362
		c0-0.479,0.062-0.92,0.186-1.32c0.124-0.399,0.306-0.743,0.546-1.031s0.534-0.512,0.882-0.672c0.349-0.16,0.746-0.24,1.194-0.24
		c0.36,0,0.678,0.048,0.954,0.144c0.276,0.097,0.481,0.188,0.618,0.276V43.633z M99.861,47.833c-0.137-0.112-0.332-0.22-0.588-0.324
		c-0.257-0.104-0.536-0.156-0.84-0.156c-0.32,0-0.595,0.059-0.822,0.175c-0.229,0.115-0.414,0.275-0.559,0.479
		c-0.144,0.204-0.248,0.446-0.312,0.727c-0.064,0.279-0.096,0.58-0.096,0.899c0,0.729,0.18,1.29,0.54,1.687
		c0.359,0.396,0.84,0.594,1.439,0.594c0.304,0,0.559-0.014,0.762-0.042c0.204-0.028,0.362-0.058,0.475-0.09V47.833z"/>
	<path d="M105.261,50.545c0-0.312,0.048-0.59,0.145-0.834c0.096-0.244,0.226-0.464,0.39-0.66c0.164-0.195,0.354-0.368,0.57-0.516
		c0.216-0.148,0.439-0.278,0.672-0.391c-0.592-0.592-0.888-1.203-0.888-1.836c0-0.319,0.054-0.607,0.161-0.863
		c0.108-0.256,0.257-0.473,0.444-0.648s0.412-0.312,0.672-0.408c0.26-0.096,0.546-0.144,0.858-0.144
		c0.319,0,0.605,0.048,0.857,0.144c0.252,0.097,0.464,0.225,0.637,0.384c0.172,0.16,0.302,0.353,0.39,0.576
		c0.088,0.225,0.132,0.46,0.132,0.708c0,0.28-0.046,0.532-0.138,0.756c-0.092,0.225-0.216,0.429-0.372,0.612
		c-0.156,0.185-0.334,0.353-0.534,0.504c-0.2,0.152-0.412,0.288-0.636,0.408l1.944,1.98c0.271-0.505,0.447-1.064,0.527-1.681
		l0.924,0.12c-0.031,0.328-0.113,0.687-0.246,1.074c-0.132,0.388-0.317,0.773-0.558,1.158c0.28,0.304,0.538,0.604,0.774,0.899
		c0.235,0.296,0.43,0.584,0.582,0.864h-1.177c-0.096-0.16-0.214-0.324-0.354-0.492c-0.141-0.168-0.286-0.336-0.438-0.504
		c-0.328,0.328-0.708,0.594-1.14,0.798s-0.928,0.307-1.488,0.307c-0.52,0-0.952-0.074-1.296-0.223
		c-0.344-0.147-0.622-0.336-0.834-0.563c-0.212-0.229-0.362-0.479-0.45-0.75C105.305,51.053,105.261,50.793,105.261,50.545z
		 M106.377,50.521c0,0.145,0.028,0.301,0.084,0.469s0.148,0.322,0.276,0.462s0.294,0.256,0.498,0.348s0.457,0.138,0.762,0.138
		c0.392,0,0.754-0.071,1.086-0.216c0.332-0.144,0.626-0.348,0.882-0.611l-2.34-2.364c-0.144,0.072-0.29,0.156-0.438,0.252
		c-0.147,0.096-0.281,0.214-0.401,0.354c-0.12,0.141-0.218,0.307-0.294,0.498C106.415,50.041,106.377,50.265,106.377,50.521z
		 M109.293,46.093c0-0.271-0.09-0.502-0.27-0.689c-0.181-0.188-0.427-0.282-0.738-0.282c-0.353,0-0.622,0.106-0.811,0.317
		c-0.188,0.213-0.281,0.475-0.281,0.786c0,0.521,0.271,1.028,0.815,1.524c0.176-0.088,0.342-0.184,0.498-0.288
		c0.156-0.104,0.292-0.224,0.408-0.36c0.116-0.136,0.208-0.285,0.276-0.449C109.259,46.487,109.293,46.301,109.293,46.093z"/>
	<path d="M116.505,44.437h1.164v8.316h-1.164V44.437z"/>
	<path d="M123.693,43.633l1.116-0.191v9.132c-0.257,0.071-0.584,0.144-0.984,0.216s-0.86,0.107-1.38,0.107
		c-0.48,0-0.912-0.075-1.296-0.228s-0.712-0.368-0.984-0.648c-0.271-0.279-0.481-0.621-0.63-1.025s-0.222-0.858-0.222-1.362
		c0-0.479,0.062-0.92,0.186-1.32c0.124-0.399,0.306-0.743,0.546-1.031s0.534-0.512,0.882-0.672c0.349-0.16,0.746-0.24,1.194-0.24
		c0.36,0,0.678,0.048,0.954,0.144c0.276,0.097,0.481,0.188,0.618,0.276V43.633z M123.693,47.833
		c-0.137-0.112-0.332-0.22-0.588-0.324c-0.257-0.104-0.536-0.156-0.84-0.156c-0.32,0-0.595,0.059-0.822,0.175
		c-0.229,0.115-0.414,0.275-0.559,0.479c-0.144,0.204-0.248,0.446-0.312,0.727c-0.064,0.279-0.096,0.58-0.096,0.899
		c0,0.729,0.18,1.29,0.54,1.687c0.359,0.396,0.84,0.594,1.439,0.594c0.304,0,0.559-0.014,0.762-0.042
		c0.204-0.028,0.362-0.058,0.475-0.09V47.833z"/>
	<path d="M126.381,49.645c0-0.552,0.079-1.033,0.239-1.445s0.372-0.754,0.637-1.026c0.264-0.271,0.567-0.476,0.912-0.612
		c0.344-0.136,0.695-0.204,1.056-0.204c0.84,0,1.483,0.263,1.932,0.786c0.448,0.524,0.672,1.322,0.672,2.395c0,0.048,0,0.11,0,0.186
		c0,0.076-0.004,0.146-0.012,0.21h-4.271c0.048,0.648,0.235,1.141,0.563,1.477s0.84,0.504,1.536,0.504
		c0.392,0,0.722-0.034,0.99-0.103c0.268-0.067,0.47-0.134,0.605-0.197l0.156,0.936c-0.136,0.072-0.374,0.148-0.714,0.229
		c-0.34,0.079-0.726,0.119-1.158,0.119c-0.544,0-1.014-0.082-1.41-0.245c-0.396-0.164-0.722-0.391-0.978-0.679
		s-0.446-0.63-0.57-1.025C126.442,50.551,126.381,50.117,126.381,49.645z M130.665,49.033c0.008-0.504-0.118-0.918-0.379-1.242
		c-0.26-0.324-0.617-0.486-1.073-0.486c-0.257,0-0.482,0.051-0.679,0.15c-0.195,0.1-0.361,0.229-0.498,0.39
		c-0.136,0.16-0.241,0.345-0.317,0.552c-0.076,0.209-0.126,0.421-0.15,0.637H130.665z"/>
	<path d="M133.437,46.693c0.256-0.064,0.596-0.133,1.021-0.204c0.424-0.072,0.911-0.108,1.464-0.108c0.495,0,0.907,0.07,1.235,0.21
		c0.328,0.141,0.59,0.336,0.786,0.588s0.334,0.555,0.414,0.906c0.08,0.353,0.12,0.74,0.12,1.164v3.504h-1.116v-3.264
		c0-0.385-0.025-0.712-0.078-0.984c-0.052-0.271-0.138-0.492-0.258-0.66s-0.28-0.29-0.479-0.366c-0.2-0.075-0.448-0.113-0.744-0.113
		c-0.12,0-0.244,0.004-0.372,0.012s-0.25,0.018-0.366,0.03c-0.116,0.012-0.22,0.025-0.312,0.042
		c-0.093,0.016-0.158,0.028-0.198,0.036v5.268h-1.116V46.693z"/>
	<path d="M141.368,46.513h2.364v0.937h-2.364v2.88c0,0.312,0.024,0.57,0.072,0.773c0.048,0.204,0.12,0.364,0.216,0.48
		s0.216,0.198,0.36,0.246c0.144,0.048,0.312,0.072,0.504,0.072c0.336,0,0.605-0.038,0.81-0.114s0.346-0.13,0.426-0.162l0.217,0.924
		c-0.112,0.057-0.309,0.126-0.589,0.21c-0.279,0.084-0.6,0.126-0.96,0.126c-0.424,0-0.773-0.054-1.05-0.162
		c-0.275-0.107-0.498-0.27-0.666-0.485c-0.168-0.217-0.286-0.482-0.354-0.799c-0.068-0.315-0.103-0.682-0.103-1.098v-5.568
		l1.116-0.191V46.513z"/>
	<path d="M145.7,45.385c-0.2,0-0.37-0.065-0.51-0.198c-0.14-0.132-0.21-0.31-0.21-0.533c0-0.225,0.07-0.402,0.21-0.534
		s0.31-0.198,0.51-0.198s0.37,0.066,0.511,0.198c0.14,0.132,0.21,0.31,0.21,0.534c0,0.224-0.07,0.401-0.21,0.533
		C146.07,45.319,145.9,45.385,145.7,45.385z M146.265,52.753h-1.116v-6.24h1.116V52.753z"/>
	<path d="M149.229,46.513h2.364v0.937h-2.364v2.88c0,0.312,0.024,0.57,0.072,0.773c0.048,0.204,0.12,0.364,0.216,0.48
		s0.216,0.198,0.36,0.246c0.144,0.048,0.312,0.072,0.504,0.072c0.336,0,0.605-0.038,0.81-0.114s0.346-0.13,0.426-0.162l0.217,0.924
		c-0.112,0.057-0.309,0.126-0.589,0.21c-0.279,0.084-0.6,0.126-0.96,0.126c-0.424,0-0.773-0.054-1.05-0.162
		c-0.275-0.107-0.498-0.27-0.666-0.485c-0.168-0.217-0.286-0.482-0.354-0.799c-0.068-0.315-0.103-0.682-0.103-1.098v-5.568
		l1.116-0.191V46.513z"/>
	<path d="M152.275,53.917c0.089,0.04,0.202,0.078,0.343,0.114c0.14,0.036,0.277,0.054,0.414,0.054c0.439,0,0.783-0.098,1.031-0.294
		s0.473-0.515,0.673-0.954c-0.505-0.96-0.975-1.978-1.41-3.054c-0.437-1.076-0.798-2.166-1.086-3.271h1.199
		c0.088,0.36,0.194,0.748,0.318,1.164s0.262,0.845,0.414,1.284c0.151,0.44,0.315,0.88,0.492,1.32
		c0.176,0.439,0.359,0.863,0.552,1.271c0.304-0.84,0.568-1.672,0.792-2.496c0.224-0.823,0.436-1.672,0.636-2.544h1.152
		c-0.288,1.176-0.608,2.307-0.96,3.391c-0.353,1.084-0.732,2.098-1.14,3.042c-0.16,0.359-0.326,0.67-0.498,0.93
		c-0.173,0.26-0.362,0.474-0.57,0.642s-0.442,0.292-0.702,0.372s-0.554,0.12-0.882,0.12c-0.088,0-0.18-0.006-0.276-0.018
		c-0.096-0.013-0.189-0.028-0.281-0.048c-0.093-0.021-0.177-0.042-0.253-0.066c-0.075-0.024-0.13-0.044-0.161-0.06L152.275,53.917z"
		/>
</g>
</svg>
