<?xml version="1.0" encoding="utf-8"?>
<!-- Generator: Adobe Illustrator 15.0.0, SVG Export Plug-In . SVG Version: 6.00 Build 0)  -->
<!DOCTYPE svg PUBLIC "-//W3C//DTD SVG 1.1//EN" "http://www.w3.org/Graphics/SVG/1.1/DTD/svg11.dtd">
<svg version="1.1" id="Layer_1" xmlns="http://www.w3.org/2000/svg" xmlns:xlink="http://www.w3.org/1999/xlink" x="0px" y="0px"
	 width="236px" height="76px" viewBox="0 0 236 76" enable-background="new 0 0 236 76" xml:space="preserve">
<text transform="matrix(1 0 0 1 76.5298 38)"><tspan x="0" y="0" font-family="'Ubuntu'" font-size="21.1281">Branding </tspan><tspan x="0" y="25.354" font-family="'Ubuntu'" font-size="21.1281">&amp; Print</tspan></text>
<g>
	<g>
		<path fill="#010202" d="M45,10.039c-15.443,0-27.961,12.519-27.961,27.961S29.557,65.961,45,65.961
			c15.441,0,27.961-12.519,27.961-27.961S60.441,10.039,45,10.039z M60.026,37.575L43.43,54.172c-0.807,0.807-2.115,0.807-2.92,0
			L28.828,42.49c-0.806-0.806-0.806-2.113,0-2.921l16.597-16.597c0.806-0.805,9.123-0.805,9.93,0l1.167,1.169l-1.467,1.467
			c-0.968-0.204-2.016,0.069-2.768,0.821c-1.183,1.183-1.183,3.101,0,4.282c1.183,1.184,3.101,1.184,4.283,0
			c0.752-0.751,1.025-1.8,0.822-2.768l1.466-1.467l1.167,1.169C60.833,28.452,60.833,36.769,60.026,37.575z M61.534,22.634
			l-6.23,6.23c-0.321,0.322-0.844,0.322-1.167,0c-0.322-0.323-0.322-0.846,0-1.169l6.23-6.23c0.321-0.322,0.846-0.322,1.168,0
			S61.857,22.31,61.534,22.634z"/>
	</g>
</g>
</svg>
