<?xml version="1.0" encoding="utf-8"?>
<!-- Generator: Adobe Illustrator 15.0.0, SVG Export Plug-In . SVG Version: 6.00 Build 0)  -->
<!DOCTYPE svg PUBLIC "-//W3C//DTD SVG 1.1//EN" "http://www.w3.org/Graphics/SVG/1.1/DTD/svg11.dtd">
<svg version="1.1" id="Layer_1" xmlns="http://www.w3.org/2000/svg" xmlns:xlink="http://www.w3.org/1999/xlink" x="0px" y="0px"
	 width="196px" height="169px" viewBox="0 0 196 169" enable-background="new 0 0 196 169" xml:space="preserve">
<path fill="none" stroke="#FAAF40" stroke-width="7" stroke-miterlimit="10" d="M168.736,86.922
	c0,40.514-35.248,73.354-78.729,73.354c-43.486,0-78.736-32.841-78.736-73.354s35.25-73.354,78.736-73.354
	C133.488,13.567,168.736,46.408,168.736,86.922z"/>
<g>
	<path fill="#231F20" d="M191.248,48.692c-6.821,9.24-14.139,18.372-21.945,27.39c-7.812,9.023-17.108,18.48-27.885,28.379
		c-15.18,13.645-29.757,23.049-43.725,28.217c-13.973,5.166-27.117,7.754-39.435,7.754c-12.54,0-22.44-3.744-29.7-11.221
		c-7.26-7.477-10.89-17.158-10.89-29.039c0-10.561,3.187-21.006,9.57-31.35c6.378-10.338,14.406-19.578,24.09-27.72
		c9.678-8.137,20.295-14.737,31.845-19.8c11.55-5.058,22.492-7.59,32.835-7.59c9.457,0,16.83,1.815,22.11,5.445
		s7.92,8.745,7.92,15.345c0,5.28-1.815,10.122-5.445,14.52c-3.63,4.403-8.307,8.363-14.024,11.88
		c-5.724,3.521-12.159,6.6-19.305,9.24c-7.152,2.64-14.247,4.95-21.285,6.93c-7.043,1.98-13.644,3.629-19.8,4.949
		c-6.162,1.32-11.22,2.424-15.18,3.301c-1.104,4.402-1.65,8.363-1.65,11.879c0,9.463,2.64,17.16,7.92,23.102
		c5.28,5.939,12.648,8.908,22.11,8.908c9.24,0,19.414-2.748,30.524-8.25c11.107-5.496,22.275-13.529,33.496-24.09
		c8.58-8.137,16.83-16.664,24.75-25.574s14.85-17.211,20.79-24.915L191.248,48.692z M117.163,19.652
		c-1.65-1.32-3.795-1.98-6.435-1.98c-5.502,0-11.442,2.31-17.82,6.93c-6.384,4.62-12.375,10.287-17.985,16.995
		c-5.61,6.713-10.56,13.752-14.85,21.12c-4.29,7.374-7.095,13.809-8.415,19.305c9.018-1.758,17.598-4.672,25.74-8.745
		c8.137-4.068,15.345-8.688,21.615-13.86c6.27-5.167,11.271-10.668,15.015-16.5c3.738-5.827,5.609-11.385,5.609-16.665
		C119.638,23.173,118.813,20.972,117.163,19.652z"/>
</g>
<text transform="matrix(1 0 0 1 400 300)" font-family="'MyriadPro-Regular'" font-size="12">&lt;i class=&quot;icon-menu&quot;&gt;</text>
</svg>
