<?xml version="1.0" encoding="utf-8"?>
<!-- Generator: Adobe Illustrator 15.0.0, SVG Export Plug-In . SVG Version: 6.00 Build 0)  -->
<!DOCTYPE svg PUBLIC "-//W3C//DTD SVG 1.1//EN" "http://www.w3.org/Graphics/SVG/1.1/DTD/svg11.dtd">
<svg version="1.1" id="Capa_1" xmlns="http://www.w3.org/2000/svg" xmlns:xlink="http://www.w3.org/1999/xlink" x="0px" y="0px"
	 width="64px" height="64px" viewBox="0 0 64 64" enable-background="new 0 0 64 64" xml:space="preserve">
<path d="M9.909,53.748h45.144c1.038,0,1.883-0.844,1.883-1.883s-0.845-1.883-1.883-1.883H11.789V28.77c0-1.037-0.843-1.88-1.88-1.88
	c-1.038,0-1.883,0.843-1.883,1.88v23.096C8.026,52.904,8.871,53.748,9.909,53.748z"/>
<path d="M28.073,30.958c-1.859,0-3.367,1.507-3.367,3.367v9.819c0,1.858,1.507,3.366,3.367,3.366h0.501
	c1.859,0,3.367-1.507,3.367-3.366v-9.819c0-1.859-1.508-3.367-3.367-3.367H28.073z"/>
<path d="M39.609,25.346h-0.5c-1.859,0-3.367,1.508-3.367,3.367v15.432c0,1.859,1.507,3.367,3.367,3.367h0.5
	c1.858,0,3.367-1.507,3.367-3.367V28.713C42.977,26.854,41.471,25.346,39.609,25.346z"/>
<path d="M50.646,17.49h-0.502c-1.858,0-3.367,1.507-3.367,3.367v23.288c0,1.859,1.508,3.367,3.367,3.367h0.502
	c1.857,0,3.367-1.507,3.367-3.367V20.857C54.014,18.998,52.506,17.49,50.646,17.49z"/>
<path d="M17.702,34.979c-1.859,0-3.367,1.508-3.367,3.367v5.799c0,1.859,1.508,3.367,3.367,3.367h0.501
	c1.859,0,3.367-1.507,3.367-3.367v-5.799c0-1.859-1.508-3.367-3.367-3.367H17.702z"/>
</svg>
