<?xml version="1.0" encoding="utf-8"?>
<!-- Generator: Adobe Illustrator 15.0.0, SVG Export Plug-In . SVG Version: 6.00 Build 0)  -->
<!DOCTYPE svg PUBLIC "-//W3C//DTD SVG 1.1//EN" "http://www.w3.org/Graphics/SVG/1.1/DTD/svg11.dtd">
<svg version="1.1" id="Capa_1" xmlns="http://www.w3.org/2000/svg" xmlns:xlink="http://www.w3.org/1999/xlink" x="0px" y="0px"
	 width="800px" height="600px" viewBox="0 0 800 600" enable-background="new 0 0 800 600" xml:space="preserve">
<g>
	<path d="M399.895,43.692c-149.922,0.696-271.896,123.231-271.896,273.147c0,45.528,11.415,90.411,33,130.183v-72.217
		c0-13.311,4.737-25.655,13.041-36.246c-0.687-7.202-1.041-14.45-1.041-21.72c0-125.22,101.877-227.565,226.896-228.147
		c125.226,0.579,227.103,102.927,227.103,228.147c0,8.049-0.447,16.071-1.29,24.039C632.926,350.934,637,362.457,637,374.805v75.879
		c22.893-40.665,35.001-86.919,35.001-133.845C672.001,166.923,550.027,44.388,399.895,43.692z"/>
	<path fill="#FF9933" d="M177.76,363.144c-1.149,3.766-1.761,7.665-1.761,11.664v69.604v32.396c0,31.479,37.491,57,83.742,57H295
		v-216h-35.259C219.364,317.808,185.671,337.257,177.76,363.144z"/>
	<path fill="#FF9933" d="M622,476.808v-33.53v-68.47c0-2.457-0.255-4.875-0.699-7.251c-5.234-28.056-40.404-49.749-83.043-49.749
		h-35.259v216h35.259C584.509,533.808,622,508.287,622,476.808z"/>
</g>
</svg>
