<?xml version="1.0" encoding="utf-8"?>
<!-- Generator: Adobe Illustrator 15.0.0, SVG Export Plug-In . SVG Version: 6.00 Build 0)  -->
<!DOCTYPE svg PUBLIC "-//W3C//DTD SVG 1.1//EN" "http://www.w3.org/Graphics/SVG/1.1/DTD/svg11.dtd">
<svg version="1.1" id="Layer_1" xmlns="http://www.w3.org/2000/svg" xmlns:xlink="http://www.w3.org/1999/xlink" x="0px" y="0px"
	 width="219px" height="149px" viewBox="0 0 219 149" enable-background="new 0 0 219 149" xml:space="preserve">
<g>
	<g>
		<path d="M94.706,6.459L77.548,96.469l-0.006-0.006L5.05,107.197l96.719,34.712l86.113-11.566l26.555-112.142L94.706,6.459z
			 M77.687,128.369l-23.732-9.066l11.446-1.52l26.626,8.884L77.687,128.369z M180.017,120.913L84.224,93.825l15.391-79.45
			l102.762,12.073L180.017,120.913z"/>
		<polygon points="133.739,24.695 105.259,21.37 104.262,26.195 132.96,29.084 		"/>
		<polygon points="132.415,32.085 103.736,28.734 102.72,33.67 131.32,37.333 		"/>
		<polygon points="130.888,40.709 101.963,37.333 101.063,41.697 130.118,45.087 		"/>
		<polygon points="92.966,78.552 121.641,84.091 122.41,79.714 93.861,74.188 		"/>
		<polygon points="91.715,86.014 120.27,92.255 121.039,87.878 92.611,81.648 		"/>
		<path d="M144.506,71.681c-0.272-6.793,4.533-13.508,10.704-14.95c2.772-0.636,5.345-0.097,7.377,1.299l11.13-16.028
			c-5.194-3.87-11.948-5.377-19.209-3.656c-15.287,3.63-27.091,20.249-26.444,37.081c0.63,16.497,12.981,27.388,27.848,24.679
			l-0.701-18.424C149.462,82.441,144.747,78.155,144.506,71.681z"/>
		<path fill="#FF9933" d="M170.464,63.622l16.91-3.787c-0.604-8.553-4.395-15.476-10.02-19.658l-11.157,16.054
			C168.457,57.776,170.055,60.367,170.464,63.622z"/>
		<path d="M168.588,66.193c0.051,0.383,0.09,0.747,0.104,1.15c0.259,6.857-4.592,13.579-10.807,14.969
			c-0.312,0.071-0.623,0.124-0.941,0.155l0.707,18.425c0.319-0.052,0.618-0.11,0.942-0.183c15.456-3.356,27.62-20.067,26.958-37.198
			c-0.014-0.364-0.039-0.734-0.064-1.104L168.588,66.193z"/>
	</g>
	<g>
	</g>
	<g>
	</g>
	<g>
	</g>
	<g>
	</g>
	<g>
	</g>
	<g>
	</g>
	<g>
	</g>
	<g>
	</g>
	<g>
	</g>
	<g>
	</g>
	<g>
	</g>
	<g>
	</g>
	<g>
	</g>
	<g>
	</g>
	<g>
	</g>
</g>
</svg>
