<?xml version="1.0" encoding="utf-8"?>
<!-- Generator: Adobe Illustrator 15.0.0, SVG Export Plug-In . SVG Version: 6.00 Build 0)  -->
<!DOCTYPE svg PUBLIC "-//W3C//DTD SVG 1.1//EN" "http://www.w3.org/Graphics/SVG/1.1/DTD/svg11.dtd">
<svg version="1.1" id="Capa_1" xmlns="http://www.w3.org/2000/svg" xmlns:xlink="http://www.w3.org/1999/xlink" x="0px" y="0px"
	 width="45.848px" height="54.497px" viewBox="0 0 45.848 54.497" enable-background="new 0 0 45.848 54.497" xml:space="preserve">
<g>
	<path fill="#FF0000" d="M41.025,14.688V9.121c0-1.972-2.876-3.004-5.717-3.004c-2.843,0-5.718,1.032-5.718,3.004V9.31l-0.948-0.446
		V3.282c0-1.973-2.875-3.004-5.717-3.004c-2.841,0-5.717,1.032-5.717,3.004v5.894l-0.512,0.226V9.121
		c0-1.972-2.876-3.004-5.717-3.004c-2.842,0-5.717,1.032-5.717,3.004v5.308l-2.584,1.136c-0.985,0.433-1.621,1.407-1.621,2.482
		v23.04c0,1.004,0.556,1.928,1.444,2.396l19.704,10.422c0.812,0.43,1.788,0.42,2.59-0.029l18.605-10.39
		c0.858-0.479,1.391-1.386,1.391-2.368V18.181c0-1.051-0.607-2.007-1.559-2.454L41.025,14.688z M31.536,9.136
		c0.102-0.299,1.396-1.073,3.771-1.073c2.381,0,3.681,0.78,3.772,1.04c-0.093,0.296-1.393,1.077-3.772,1.077
		c-2.373,0-3.669-0.774-3.771-1.037V9.136z M31.536,11.427c1.056,0.46,2.416,0.698,3.771,0.698c1.355,0,2.717-0.238,3.771-0.698
		c0,0-0.024,3.903,0,3.963v0.005c-0.1,0.297-1.397,1.074-3.771,1.074c-2.381,0-3.68-0.781-3.771-1.04
		C31.547,15.387,31.536,11.427,31.536,11.427z M19.154,3.297c0.102-0.299,1.398-1.074,3.771-1.074c2.381,0,3.681,0.78,3.773,1.039
		C26.606,3.56,25.306,4.34,22.925,4.34c-2.373,0-3.67-0.774-3.771-1.037V3.297z M19.154,5.588c1.057,0.46,2.416,0.698,3.771,0.698
		s2.716-0.238,3.771-0.698c0,0-0.022,3.904,0,3.963v0.005c-0.099,0.298-1.396,1.074-3.771,1.074c-2.38,0-3.68-0.78-3.772-1.039
		C19.165,9.548,19.154,5.588,19.154,5.588z M7.208,9.136c0.101-0.299,1.396-1.073,3.771-1.073c2.38,0,3.682,0.78,3.773,1.04
		c-0.092,0.296-1.394,1.077-3.773,1.077c-2.374,0-3.67-0.774-3.771-1.037V9.136z M7.208,11.427c1.056,0.46,2.416,0.698,3.771,0.698
		c1.356,0,2.716-0.238,3.771-0.698c0,0-0.023,3.903,0,3.963v0.005c-0.099,0.297-1.397,1.074-3.771,1.074
		c-2.381,0-3.68-0.781-3.771-1.04C7.22,15.387,7.208,11.427,7.208,11.427z M22.076,49.713c0,0.438-0.229,0.842-0.604,1.065
		c-0.375,0.226-0.841,0.235-1.226,0.028L3.982,42.079c-0.603-0.322-0.979-0.951-0.979-1.637V21.644c0-0.47,0.247-0.905,0.65-1.146
		s0.904-0.251,1.317-0.028l16.13,8.713c0.602,0.323,0.976,0.95,0.976,1.634V49.713z M24.202,27.265
		c-0.573,0.31-1.264,0.315-1.843,0.015L4.58,18.029c-0.179-0.093-0.288-0.279-0.282-0.48c0.006-0.201,0.125-0.38,0.308-0.463
		l1.07-0.483c0.892,1.193,3.104,1.814,5.303,1.814c2.842,0,5.717-1.032,5.717-3.004V11.62l1.201-0.543
		c1.021,0.988,3.03,1.5,5.027,1.5c2.165,0,4.347-0.601,5.264-1.759l1.401,0.664v3.93c0,1.972,2.876,3.004,5.718,3.004
		c2.155,0,4.327-0.595,5.251-1.743l0.908,0.43c0.157,0.074,0.26,0.231,0.265,0.406c0.005,0.175-0.089,0.336-0.243,0.419
		L24.202,27.265z M42.846,40.639c0,0.57-0.31,1.096-0.808,1.371l-15.711,8.73c-0.386,0.213-0.854,0.207-1.233-0.017
		s-0.612-0.632-0.612-1.071V30.65c0-0.612,0.331-1.177,0.866-1.476l15.613-8.715c0.393-0.219,0.872-0.213,1.259,0.014
		c0.388,0.228,0.626,0.644,0.626,1.093V40.639z"/>
	<path fill="#FF0000" d="M23.508,13.242c-2.841,0-5.717,1.032-5.717,3.005v6.29c0,1.972,2.876,3.004,5.717,3.004
		c2.842,0,5.717-1.032,5.717-3.004v-6.29C29.225,14.274,26.35,13.242,23.508,13.242z M27.279,22.517v0.005
		c-0.097,0.298-1.396,1.074-3.771,1.074c-2.381,0-3.68-0.781-3.773-1.04c0.015-0.042,0.002-4.002,0.002-4.002
		c1.057,0.46,2.416,0.698,3.771,0.698s2.716-0.238,3.771-0.698C27.279,18.553,27.256,22.456,27.279,22.517z M23.508,17.305
		c-2.373,0-3.669-0.775-3.771-1.037v-0.007c0.103-0.298,1.398-1.073,3.771-1.073c2.38,0,3.682,0.78,3.771,1.039
		C27.19,16.524,25.888,17.305,23.508,17.305z"/>
</g>
</svg>
