<?xml version="1.0" encoding="utf-8"?>
<!-- Generator: Adobe Illustrator 15.0.0, SVG Export Plug-In . SVG Version: 6.00 Build 0)  -->
<!DOCTYPE svg PUBLIC "-//W3C//DTD SVG 1.1//EN" "http://www.w3.org/Graphics/SVG/1.1/DTD/svg11.dtd">
<svg version="1.1" id="Layer_1" xmlns="http://www.w3.org/2000/svg" xmlns:xlink="http://www.w3.org/1999/xlink" x="0px" y="0px"
	 width="256px" height="88.375px" viewBox="57.5 -33.5 256 88.375" enable-background="new 57.5 -33.5 256 88.375"
	 xml:space="preserve">
<g>
	<path fill="#FF9933" d="M103.971,44.271c-1.178-0.943-1.304-2.361-1.304-2.361l-0.441-3.071H88.135l-0.442,3.071
		c0,0-0.123,1.418-1.304,2.361c-1.177,0.942-2.108,1.753-1.177,1.891c0.896,0.128,9.347,0.009,9.969,0
		c0.625,0.009,9.073,0.128,9.968,0C106.08,46.023,105.149,45.215,103.971,44.271z"/>
	<g>
		<path fill="#FFFF00" d="M79.31,19.712c3.765-0.033,4.233-1.019,5.46-5.13c2.263-6.489,12.454,1.699,6.137,4.54
			C84.591,21.964,75.546,19.742,79.31,19.712z"/>
		<path fill="#FF9933" d="M117.908-23.046c-1.828-1.599-4.853-0.812-6.76,1.761L91.837,8.563c-1.908,2.572-1.898,2.082-0.071,3.681
			c1.826,1.6,1.386,1.716,3.294-0.857l22.703-26.872C119.668-18.061,119.734-21.445,117.908-23.046z M112.942-19.474
			c0,0-0.284-0.357-1.225-1.175c1.411-2.506,4.185-2.048,4.185-2.048C113.272-21.007,112.942-19.474,112.942-19.474z"/>
	</g>
	<path fill="#FF9933" d="M126.471-12.96h-8.492l-3.75,4.44h10.883V27H65.253V-8.52h34.822l2.872-4.44H63.892
		c-1.502,0-2.721,1.326-2.721,2.96v42.92c0,1.633,1.219,2.958,2.721,2.958h62.579c1.502,0,2.721-1.325,2.721-2.958v-42.921
		C129.191-11.634,127.973-12.96,126.471-12.96z"/>
</g>
<text transform="matrix(0.9192 0 0 1 137.7441 13.3911)" font-family="'Ubuntu'" font-size="25.677">Web Design</text>
<text transform="matrix(0.9192 0 0 1 137.7441 44.2051)" enable-background="new    "><tspan x="0" y="0" fill="#999999" font-family="'Ubuntu'" font-size="25.677">&amp;</tspan><tspan x="17.1" y="0" font-family="'Ubuntu'" font-size="25.677"> Development</tspan></text>
</svg>
