<?xml version="1.0" encoding="utf-8"?>
<!-- Generator: Adobe Illustrator 15.0.0, SVG Export Plug-In . SVG Version: 6.00 Build 0)  -->
<!DOCTYPE svg PUBLIC "-//W3C//DTD SVG 1.1//EN" "http://www.w3.org/Graphics/SVG/1.1/DTD/svg11.dtd">
<svg version="1.1" id="Layer_1" xmlns="http://www.w3.org/2000/svg" xmlns:xlink="http://www.w3.org/1999/xlink" x="0px" y="0px"
	 width="236px" height="76px" viewBox="0 0 236 76" enable-background="new 0 0 236 76" xml:space="preserve">
<text transform="matrix(1 0 0 1 76.5298 38)"><tspan x="0" y="0" font-family="'Ubuntu'" font-size="21.1281">Mobile App</tspan><tspan x="0" y="25.354" font-family="'Ubuntu'" font-size="21.1281">Development</tspan></text>
<g>
	<path fill="#010202" d="M65.839,31.972c0-1.654-1.34-2.992-2.993-2.992h-2.993v6.483h2.993c1.653,0,2.993-1.34,2.993-2.992V31.972z
		"/>
	<path fill="#010202" d="M65.839,39.618c0-1.653-1.34-2.993-2.993-2.993h-2.993v6.483h2.993c1.653,0,2.993-1.34,2.993-2.991V39.618z
		"/>
	<path fill="#010202" d="M65.839,47.765v-0.499c0-1.653-1.34-2.992-2.993-2.992h-2.993v6.482h2.993
		C64.499,50.756,65.839,49.417,65.839,47.765z"/>
	<path fill="#010202" d="M67.395,20.691v-0.417c0-1.652-1.285-2.612-2.87-2.145l-4.671,0.542v6.898l4.719-0.895
		C66.13,24.129,67.395,22.345,67.395,20.691z"/>
	<path fill="#010202" d="M49.559,56.979h6.259c1.637,0,2.964-1.328,2.964-2.967V15.973c0-1.638-1.327-2.967-2.964-2.967H35.876
		c-1.639,0-2.963,1.329-2.963,2.967v10.006v12.457h4V18.717c0-0.451,0.367-0.817,0.817-0.817h16.232
		c0.453,0,0.816,0.366,0.816,0.817v29.285c0,0.452-0.364,0.816-0.816,0.816H39.445v5.073c-0.107,0.363-0.219,0.664-0.219,0.664
		h5.198c-0.305-0.331-0.494-0.77-0.494-1.255c0-1.031,0.836-1.868,1.868-1.868c1.029,0,1.864,0.837,1.864,1.868
		c0,0.484-0.189,0.922-0.493,1.255h2.902l-0.274,1.414C49.786,56.03,49.708,56.41,49.559,56.979z"/>
	<path fill="#010202" d="M37.04,68.008c1.738-0.868,4.169-1.899,6.309-3.436c3.242-2.329,4.406-8.312,4.406-8.312h-8.63
		c-1.796,4.116-5.505,7.597-5.69,7.769c-0.228,0.213-0.518,0.317-0.806,0.317c-0.318,0-0.638-0.127-0.871-0.38
		c-0.446-0.48-0.418-1.231,0.062-1.679c0.046-0.041,4.38-4.11,5.587-8.212v-6.562h10.057c2.204,0,3.989-1.661,3.989-3.71
		c0-2.048-1.787-3.708-3.989-3.708H31.007V28.498l-6.494,4.372c-1.89,1.134-4.074,3.715-4.879,5.766L9.14,67.04
		c-0.455,1.229,0.24,2.228,1.552,2.228h21.972C33.975,69.268,35.867,68.593,37.04,68.008z"/>
</g>
</svg>
