<?xml version="1.0" encoding="utf-8"?>
<!-- Generator: Adobe Illustrator 15.0.0, SVG Export Plug-In . SVG Version: 6.00 Build 0)  -->
<!DOCTYPE svg PUBLIC "-//W3C//DTD SVG 1.1//EN" "http://www.w3.org/Graphics/SVG/1.1/DTD/svg11.dtd">
<svg version="1.1" id="Layer_1" xmlns="http://www.w3.org/2000/svg" xmlns:xlink="http://www.w3.org/1999/xlink" x="0px" y="0px"
	 width="236px" height="76px" viewBox="0 0 236 76" enable-background="new 0 0 236 76" xml:space="preserve">
<text transform="matrix(1 0 0 1 76.5298 38)"><tspan x="0" y="0" font-family="'Ubuntu'" font-size="21.1281">SEO &amp; </tspan><tspan x="0" y="25.354" font-family="'Ubuntu'" font-size="21.1281">Marketing</tspan></text>
<g>
	<path fill="#010202" d="M65.015,63.549v2.936H20.98h-2.936v-2.936V19.516h2.936v44.033H65.015z M59.143,19.516l-11.556,1.889
		l2.778,3.397L25.923,44.801l1.858,2.27l24.444-19.998l2.778,3.395L59.143,19.516z M55.952,36.264l-2.68-3.277v27.627h5.871V27.82
		L55.952,36.264z M35.659,44.419v16.194h5.871V39.617L35.659,44.419z M27.366,51.202l-0.514-0.631v10.042h5.871V46.818
		L27.366,51.202z M44.465,37.214v23.399h5.871V32.41L44.465,37.214z"/>
</g>
</svg>
