<?xml version="1.0" encoding="utf-8"?>
<!-- Generator: Adobe Illustrator 15.0.0, SVG Export Plug-In . SVG Version: 6.00 Build 0)  -->
<!DOCTYPE svg PUBLIC "-//W3C//DTD SVG 1.1//EN" "http://www.w3.org/Graphics/SVG/1.1/DTD/svg11.dtd">
<svg version="1.1" id="Layer_1" xmlns="http://www.w3.org/2000/svg" xmlns:xlink="http://www.w3.org/1999/xlink" x="0px" y="0px"
	 width="1930px" height="500px" viewBox="0 0 1930 500" enable-background="new 0 0 1930 500" xml:space="preserve">
<rect x="-38" y="-13" fill="#33CCFF" stroke="#000000" stroke-miterlimit="10" width="1968" height="528"/>
<g opacity="0.1">
	<path d="M282.985,154.425l-36.056-31.443l-36.055-31.441l-36.057,31.441l-36.056,31.443h39.458
		c-13.288,81.606-88.688,145.088-174.494,131.59c-3.774-0.59-5.303,4.49-1.594,5.779c106.785,37.164,229.805-23.898,247.6-137.37
		H282.985z"/>
	<path fill="#333333" d="M203.012,259.861c-11.086,10.248-23.484,19.18-36.911,26.646v101.377h36.911V259.861z"/>
	<path fill="#666666" d="M110.734,387.885h36.911v-92.336c-11.729,5-24.076,8.939-36.911,11.695V387.885z"/>
	<path d="M221.467,387.885h36.911V163.653h-0.933c-5.791,28.619-18.362,54.521-35.978,76.399V387.885z"/>
	<path fill="#CCCCCC" d="M36.912,309.703c-12.535-1.832-24.877-4.773-36.911-8.902v87.084h36.911V309.703z"/>
	<path fill="#999999" d="M55.367,387.885h36.911v-77.539c-8.394,1.02-16.947,1.553-25.638,1.553c-3.771,0-7.527-0.141-11.273-0.344
		V387.885z"/>
</g>
<g opacity="0.1">
	<path d="M910.5,5.5c-49.361,0-89.375,40.014-89.375,89.375c0,89.375,89.375,196.625,89.375,196.625s89.375-107.25,89.375-196.625
		C999.875,45.514,959.86,5.5,910.5,5.5z M910.5,149.617c-30.233,0-54.742-24.509-54.742-54.742s24.509-54.742,54.742-54.742
		s54.742,24.509,54.742,54.742S940.733,149.617,910.5,149.617z M875.867,94.875c0,19.127,15.505,34.633,34.633,34.633
		s34.633-15.505,34.633-34.633S929.627,60.242,910.5,60.242S875.867,75.748,875.867,94.875z"/>
</g>
<g opacity="0.1">
	<path d="M1529.627,321.207c0-34.579,44.842-40.111,44.842-59.161c0-8.37-6.478-13.374-14.584-13.374
		c-11.208,0-17.29,11.35-17.29,11.35l-12.968-8.645c0,0,8.776-19.182,31.742-19.182c16.883,0,31.204,10.262,31.204,28.365
		c0,30.798-42.95,36.065-43.358,54.169h44.843v14.99h-63.616C1530.034,326.62,1529.627,323.914,1529.627,321.207z M1603.824,294.327
		l41.334-60.516h20.666v56.732h12.429v14.462h-12.429v24.714h-17.157v-24.714h-44.843V294.327z M1648.667,290.544v-29.707
		c0-4.729,0.682-9.999,0.682-9.999h-0.274c0,0-2.156,5.126-4.729,8.776l-22.151,30.664v0.266H1648.667L1648.667,290.544z
		 M1733.263,285.461l-3.337,11.954c-18.971,67.957-88.195,110.839-156.674,93.844c-65.772-16.323-106.649-80.057-96.82-144.988
		l19.818,5.533c4.593,1.281,8.854-2.889,7.666-7.51l-21.552-83.924c-1.187-4.62-6.929-6.223-10.336-2.886l-61.914,60.624
		c-3.407,3.337-1.926,9.112,2.669,10.395l21.572,6.022c-16.099,87.833,38.087,175.311,126.511,198.337
		c91.817,23.91,185.47-32.923,210.98-124.31l3.19-11.43c0.92-3.296-1.005-6.714-4.3-7.634l-29.84-8.33
		C1737.601,280.237,1734.183,282.163,1733.263,285.461z M1768.521,233.166l-31.291,4.065c-3.393,0.44-5.787,3.549-5.346,6.942
		l1.233,9.491c0.44,3.394,3.549,5.786,6.941,5.347l31.293-4.065c3.395-0.441,5.787-3.551,5.347-6.943l-1.234-9.49
		C1775.025,235.118,1771.916,232.725,1768.521,233.166z M1744.433,174.034l-27.49,15.492c-2.981,1.68-4.035,5.458-2.354,8.439
		l4.697,8.338c1.68,2.981,5.459,4.036,8.439,2.356l27.491-15.492c2.98-1.68,4.035-5.458,2.355-8.439l-4.698-8.338
		C1751.192,173.409,1747.414,172.354,1744.433,174.034z M1699.947,128.233l-19.686,24.662c-2.135,2.674-1.697,6.573,0.978,8.708
		l7.479,5.97c2.675,2.136,6.573,1.698,8.708-0.977l19.686-24.662c2.135-2.675,1.697-6.574-0.978-8.708l-7.479-5.971
		C1705.981,125.121,1702.082,125.558,1699.947,128.233z M1641.544,102.432l-9.016,30.24c-0.978,3.279,0.89,6.73,4.169,7.708
		l9.172,2.734c3.279,0.978,6.73-0.889,7.708-4.168l9.014-30.24c0.978-3.279-0.889-6.73-4.168-7.708l-9.171-2.734
		C1645.972,97.286,1642.521,99.152,1641.544,102.432z M1577.727,100.387l2.97,31.415c0.322,3.407,3.346,5.907,6.752,5.585
		l9.528-0.901c3.407-0.321,5.908-3.344,5.585-6.751l-2.97-31.415c-0.322-3.407-3.345-5.907-6.752-5.585l-9.528,0.901
		C1579.904,93.958,1577.404,96.98,1577.727,100.387z M1517.791,122.398l14.523,28.015c1.574,3.038,5.313,4.224,8.352,2.649
		l8.496-4.404c3.038-1.575,4.225-5.315,2.648-8.353l-14.521-28.015c-1.574-3.038-5.314-4.224-8.353-2.649l-8.497,4.405
		C1517.402,115.62,1516.216,119.36,1517.791,122.398z"/>
</g>
<g opacity="0.1">
	<path d="M547.5,134.301c-36.232,0-65.608,29.376-65.608,65.608c0,36.232,29.376,65.609,65.608,65.609s65.609-29.377,65.609-65.609
		C613.109,163.669,583.732,134.301,547.5,134.301z M580.14,185.181l0.048,2.091c0,21.355-16.246,45.955-45.959,45.955
		c-9.118,0-17.607-2.671-24.76-7.257c1.266,0.148,2.551,0.232,3.856,0.232c7.568,0,14.532-2.582,20.058-6.915
		c-7.068-0.128-13.03-4.806-15.088-11.217c0.993,0.188,1.994,0.276,3.043,0.276c1.478,0,2.903-0.188,4.257-0.557
		c-7.388-1.494-12.958-8.013-12.958-15.833v-0.208c2.183,1.214,4.666,1.938,7.316,2.026c-4.333-2.895-7.184-7.841-7.184-13.443
		c0-2.959,0.793-5.73,2.178-8.117c7.965,9.774,19.874,16.206,33.297,16.878c-0.276-1.181-0.417-2.422-0.417-3.684
		c0-8.914,7.232-16.146,16.154-16.146c4.645,0,8.842,1.958,11.797,5.098c3.672-0.729,7.132-2.075,10.259-3.917
		c-1.209,3.772-3.764,6.936-7.104,8.938c3.256-0.385,6.379-1.266,9.274-2.543C586.047,180.071,583.3,182.915,580.14,185.181z"/>
</g>
<g opacity="0.1">
	<path d="M1111.298,236.916l18.001,201.966l80.809,22.433l81.021-22.467l18.035-201.932H1111.298z M1269.975,302.971h-0.085h-94.701
		l2.257,25.365h90.279l-6.803,76.043l-50.695,14.063l-0.051,0.018h-0.033h-0.027l-50.746-14.081l-3.469-38.899h24.871l1.764,19.773
		l27.581,7.433l0.062-0.018l27.596-7.449l2.865-32.114h-85.846l-6.683-74.901h124.079L1269.975,302.971z"/>
</g>
</svg>
