<?xml version="1.0" encoding="utf-8"?>
<!-- Generator: Adobe Illustrator 15.0.0, SVG Export Plug-In . SVG Version: 6.00 Build 0)  -->
<!DOCTYPE svg PUBLIC "-//W3C//DTD SVG 1.1//EN" "http://www.w3.org/Graphics/SVG/1.1/DTD/svg11.dtd">
<svg version="1.1" id="Layer_1" xmlns="http://www.w3.org/2000/svg" xmlns:xlink="http://www.w3.org/1999/xlink" x="0px" y="0px"
	 width="236px" height="76px" viewBox="0 0 236 76" enable-background="new 0 0 236 76" xml:space="preserve">
<g>
	<path fill="#010202" d="M46.301,65.143c-1.056-0.777-1.168-1.943-1.168-1.943l-0.395-2.529H32.125l-0.397,2.529
		c0,0-0.11,1.166-1.166,1.942c-1.054,0.776-1.887,1.443-1.054,1.555c0.802,0.107,8.366,0.009,8.923,0.001
		c0.559,0.008,8.121,0.106,8.923-0.001C48.187,66.585,47.355,65.92,46.301,65.143z"/>
	<g>
		<path fill="#010202" d="M24.225,44.933c3.37-0.026,3.79-0.839,4.888-4.221c2.025-5.339,11.147,1.397,5.494,3.735
			C28.953,46.786,20.855,44.959,24.225,44.933z"/>
		<path fill="#010202" d="M58.775,9.751c-1.637-1.317-4.344-0.669-6.051,1.448L35.438,35.76c-1.707,2.116-1.698,1.713-0.063,3.028
			c1.635,1.317,1.241,1.413,2.948-0.704l20.322-22.112C60.351,13.852,60.41,11.067,58.775,9.751z M54.33,12.69
			c0,0-0.254-0.294-1.096-0.967c1.263-2.062,3.746-1.685,3.746-1.685C54.625,11.428,54.33,12.69,54.33,12.69z"/>
	</g>
	<path fill="#010202" d="M66.44,18.049h-7.601l-3.357,3.654h9.741v29.226h-53.58V21.703h31.169l2.572-3.654h-34.96
		c-1.345,0-2.436,1.091-2.436,2.436V55.8c0,1.345,1.091,2.435,2.436,2.435H66.44c1.345,0,2.436-1.09,2.436-2.435V20.484
		C68.875,19.14,67.785,18.049,66.44,18.049z"/>
</g>
<text transform="matrix(1 0 0 1 76.5298 39.7344)"><tspan x="0" y="0" font-family="'Ubuntu'" font-size="21.1281">Web Design</tspan><tspan x="0" y="25.354" font-family="'Ubuntu'" font-size="21.1281">&amp; Development</tspan></text>
</svg>
