<?xml version="1.0" encoding="utf-8"?>
<!-- Generator: Adobe Illustrator 15.0.0, SVG Export Plug-In . SVG Version: 6.00 Build 0)  -->
<!DOCTYPE svg PUBLIC "-//W3C//DTD SVG 1.1//EN" "http://www.w3.org/Graphics/SVG/1.1/DTD/svg11.dtd">
<svg version="1.1" id="Layer_1" xmlns="http://www.w3.org/2000/svg" xmlns:xlink="http://www.w3.org/1999/xlink" x="0px" y="0px"
	 width="114px" height="113px" viewBox="46.5 -110.5 114 113" enable-background="new 46.5 -110.5 114 113" xml:space="preserve">
<g>
	<path fill="#010202" d="M114.371-27.881c-1.459-1.073-1.614-2.684-1.614-2.684l-0.546-3.494H94.787l-0.548,3.494
		c0,0-0.152,1.611-1.611,2.684c-1.456,1.071-2.606,1.992-1.456,2.147c1.108,0.148,11.558,0.012,12.327,0.001
		c0.772,0.011,11.219,0.147,12.327-0.001C116.977-25.889,115.826-26.808,114.371-27.881z"/>
	<g>
		<path fill="#010202" d="M83.874-55.799c4.656-0.036,5.236-1.16,6.752-5.832c2.798-7.375,15.399,1.931,7.59,5.16
			C90.406-53.24,79.219-55.764,83.874-55.799z"/>
		<path fill="#010202" d="M131.603-104.401c-2.261-1.819-6.001-0.924-8.358,2l-23.88,33.929c-2.358,2.923-2.346,2.367-0.087,4.183
			c2.258,1.82,1.715,1.952,4.072-0.973l28.074-30.546C133.78-98.736,133.861-102.583,131.603-104.401z M125.463-100.341
			c0,0-0.352-0.406-1.515-1.335c1.745-2.849,5.175-2.328,5.175-2.328C125.87-102.085,125.463-100.341,125.463-100.341z"/>
	</g>
	<path fill="#010202" d="M142.191-92.938h-10.5l-4.638,5.048h13.456v40.375H66.493V-87.89h43.058l3.553-5.048H64.809
		c-1.857,0-3.365,1.507-3.365,3.365v48.785c0,1.858,1.508,3.363,3.365,3.363h77.383c1.858,0,3.365-1.505,3.365-3.363v-48.786
		C145.555-91.431,144.05-92.938,142.191-92.938z"/>
</g>
<text transform="matrix(1 0 0 1 53.4766 -8.1543)" font-family="'MyriadPro-Regular'" font-size="19.9938">Web Design</text>
</svg>
